solid field2023_athletics-step_right-3
   facet normal 4.988312e-15 5.547002e-01 8.320503e-01
      outer loop
         vertex 9.150000e+00 -1.050000e+00 -2.000000e-01
         vertex 9.150000e+00 -1.650000e+00 2.000000e-01
         vertex 9.550000e+00 -1.050000e+00 -2.000000e-01
      endloop
   endfacet
   facet normal 4.988312e-15 5.547002e-01 8.320503e-01
      outer loop
         vertex 9.550000e+00 -1.050000e+00 -2.000000e-01
         vertex 9.150000e+00 -1.650000e+00 2.000000e-01
         vertex 9.550000e+00 -1.650000e+00 2.000000e-01
      endloop
   endfacet
   facet normal 0.000000e+00 1.000000e+00 1.110223e-16
      outer loop
         vertex 9.150000e+00 -1.050000e+00 -1.000000e+00
         vertex 9.150000e+00 -1.050000e+00 -2.000000e-01
         vertex 9.550000e+00 -1.050000e+00 -1.000000e+00
      endloop
   endfacet
   facet normal 0.000000e+00 1.000000e+00 1.110223e-16
      outer loop
         vertex 9.550000e+00 -1.050000e+00 -1.000000e+00
         vertex 9.150000e+00 -1.050000e+00 -2.000000e-01
         vertex 9.550000e+00 -1.050000e+00 -2.000000e-01
      endloop
   endfacet
   facet normal -5.995204e-15 1.110223e-16 -1.000000e+00
      outer loop
         vertex 9.150000e+00 -1.850000e+00 -1.000000e+00
         vertex 9.150000e+00 -1.050000e+00 -1.000000e+00
         vertex 9.550000e+00 -1.850000e+00 -1.000000e+00
      endloop
   endfacet
   facet normal -5.995204e-15 1.110223e-16 -1.000000e+00
      outer loop
         vertex 9.550000e+00 -1.850000e+00 -1.000000e+00
         vertex 9.150000e+00 -1.050000e+00 -1.000000e+00
         vertex 9.550000e+00 -1.050000e+00 -1.000000e+00
      endloop
   endfacet
   facet normal 0.000000e+00 -1.000000e+00 -1.110223e-16
      outer loop
         vertex 9.150000e+00 -1.850000e+00 2.000000e-01
         vertex 9.150000e+00 -1.850000e+00 -1.000000e+00
         vertex 9.550000e+00 -1.850000e+00 2.000000e-01
      endloop
   endfacet
   facet normal 0.000000e+00 -1.000000e+00 -1.110223e-16
      outer loop
         vertex 9.550000e+00 -1.850000e+00 2.000000e-01
         vertex 9.150000e+00 -1.850000e+00 -1.000000e+00
         vertex 9.550000e+00 -1.850000e+00 -1.000000e+00
      endloop
   endfacet
   facet normal 5.995204e-15 -1.110223e-16 1.000000e+00
      outer loop
         vertex 9.150000e+00 -1.650000e+00 2.000000e-01
         vertex 9.150000e+00 -1.850000e+00 2.000000e-01
         vertex 9.550000e+00 -1.650000e+00 2.000000e-01
      endloop
   endfacet
   facet normal 5.995204e-15 -1.110223e-16 1.000000e+00
      outer loop
         vertex 9.550000e+00 -1.650000e+00 2.000000e-01
         vertex 9.150000e+00 -1.850000e+00 2.000000e-01
         vertex 9.550000e+00 -1.850000e+00 2.000000e-01
      endloop
   endfacet
   facet normal -1.000000e+00 -6.779273e-31 5.995204e-15
      outer loop
         vertex 9.150000e+00 -1.050000e+00 -2.000000e-01
         vertex 9.150000e+00 -1.050000e+00 -1.000000e+00
         vertex 9.150000e+00 -1.650000e+00 2.000000e-01
      endloop
   endfacet
   facet normal -1.000000e+00 -6.779273e-31 5.995204e-15
      outer loop
         vertex 9.150000e+00 -1.650000e+00 2.000000e-01
         vertex 9.150000e+00 -1.050000e+00 -1.000000e+00
         vertex 9.150000e+00 -1.850000e+00 -1.000000e+00
      endloop
   endfacet
   facet normal -1.000000e+00 -6.779273e-31 5.995204e-15
      outer loop
         vertex 9.150000e+00 -1.650000e+00 2.000000e-01
         vertex 9.150000e+00 -1.850000e+00 -1.000000e+00
         vertex 9.150000e+00 -1.850000e+00 2.000000e-01
      endloop
   endfacet
   facet normal 1.000000e+00 6.779273e-31 -5.995204e-15
      outer loop
         vertex 9.550000e+00 -1.050000e+00 -1.000000e+00
         vertex 9.550000e+00 -1.050000e+00 -2.000000e-01
         vertex 9.550000e+00 -1.850000e+00 -1.000000e+00
      endloop
   endfacet
   facet normal 1.000000e+00 6.779273e-31 -5.995204e-15
      outer loop
         vertex 9.550000e+00 -1.850000e+00 -1.000000e+00
         vertex 9.550000e+00 -1.050000e+00 -2.000000e-01
         vertex 9.550000e+00 -1.650000e+00 2.000000e-01
      endloop
   endfacet
   facet normal 1.000000e+00 6.779273e-31 -5.995204e-15
      outer loop
         vertex 9.550000e+00 -1.850000e+00 -1.000000e+00
         vertex 9.550000e+00 -1.650000e+00 2.000000e-01
         vertex 9.550000e+00 -1.850000e+00 2.000000e-01
      endloop
   endfacet
endsolid