solid field2023_athletics-slope-1
   facet normal 0.000000e+00 0.000000e+00 1.000000e+00
      outer loop
         vertex 4.410674e+00 1.697084e-01 1.162211e-09
         vertex 5.250000e+00 1.697084e-01 1.162211e-09
         vertex 4.410674e+00 1.669708e+00 1.162211e-09
      endloop
   endfacet
   facet normal 0.000000e+00 0.000000e+00 1.000000e+00
      outer loop
         vertex 4.410674e+00 1.669708e+00 1.162211e-09
         vertex 5.250000e+00 1.697084e-01 1.162211e-09
         vertex 5.250000e+00 1.669708e+00 1.162211e-09
      endloop
   endfacet
   facet normal -1.000000e+00 0.000000e+00 0.000000e+00
      outer loop
         vertex 7.500000e-01 1.697084e-01 -1.000000e+00
         vertex 7.500000e-01 1.697084e-01 1.162211e-09
         vertex 7.500000e-01 1.669708e+00 -1.000000e+00
      endloop
   endfacet
   facet normal -1.000000e+00 0.000000e+00 0.000000e+00
      outer loop
         vertex 7.500000e-01 1.669708e+00 -1.000000e+00
         vertex 7.500000e-01 1.697084e-01 1.162211e-09
         vertex 7.500000e-01 1.669708e+00 1.162211e-09
      endloop
   endfacet
   facet normal -0.000000e+00 0.000000e+00 -1.000000e+00
      outer loop
         vertex 5.250000e+00 1.697084e-01 -1.000000e+00
         vertex 7.500000e-01 1.697084e-01 -1.000000e+00
         vertex 5.250000e+00 1.669708e+00 -1.000000e+00
      endloop
   endfacet
   facet normal 0.000000e+00 0.000000e+00 -1.000000e+00
      outer loop
         vertex 5.250000e+00 1.669708e+00 -1.000000e+00
         vertex 7.500000e-01 1.697084e-01 -1.000000e+00
         vertex 7.500000e-01 1.669708e+00 -1.000000e+00
      endloop
   endfacet
   facet normal 1.000000e+00 0.000000e+00 0.000000e+00
      outer loop
         vertex 5.250000e+00 1.697084e-01 1.162211e-09
         vertex 5.250000e+00 1.697084e-01 -1.000000e+00
         vertex 5.250000e+00 1.669708e+00 1.162211e-09
      endloop
   endfacet
   facet normal 1.000000e+00 0.000000e+00 0.000000e+00
      outer loop
         vertex 5.250000e+00 1.669708e+00 1.162211e-09
         vertex 5.250000e+00 1.697084e-01 -1.000000e+00
         vertex 5.250000e+00 1.669708e+00 -1.000000e+00
      endloop
   endfacet
   facet normal 0.000000e+00 0.000000e+00 1.000000e+00
      outer loop
         vertex 1.589326e+00 1.669708e+00 1.162211e-09
         vertex 7.500000e-01 1.669708e+00 1.162211e-09
         vertex 1.589326e+00 1.697084e-01 1.162211e-09
      endloop
   endfacet
   facet normal 0.000000e+00 0.000000e+00 1.000000e+00
      outer loop
         vertex 1.589326e+00 1.697084e-01 1.162211e-09
         vertex 7.500000e-01 1.669708e+00 1.162211e-09
         vertex 7.500000e-01 1.697084e-01 1.162211e-09
      endloop
   endfacet
   facet normal 0.000000e+00 -1.000000e+00 0.000000e+00
      outer loop
         vertex 4.009275e+00 1.697084e-01 -4.893786e-02
         vertex 5.250000e+00 1.697084e-01 -1.000000e+00
         vertex 4.410674e+00 1.697084e-01 1.162211e-09
      endloop
   endfacet
   facet normal 0.000000e+00 -1.000000e+00 0.000000e+00
      outer loop
         vertex 4.410674e+00 1.697084e-01 1.162211e-09
         vertex 5.250000e+00 1.697084e-01 -1.000000e+00
         vertex 5.250000e+00 1.697084e-01 1.162211e-09
      endloop
   endfacet
   facet normal 0.000000e+00 -1.000000e+00 0.000000e+00
      outer loop
         vertex 2.393774e+00 1.697084e-01 -8.160761e-02
         vertex 1.990725e+00 1.697084e-01 -4.893786e-02
         vertex 7.500000e-01 1.697084e-01 -1.000000e+00
      endloop
   endfacet
   facet normal 0.000000e+00 -1.000000e+00 0.000000e+00
      outer loop
         vertex 7.500000e-01 1.697084e-01 -1.000000e+00
         vertex 1.990725e+00 1.697084e-01 -4.893786e-02
         vertex 1.589326e+00 1.697084e-01 1.162211e-09
      endloop
   endfacet
   facet normal 0.000000e+00 -1.000000e+00 0.000000e+00
      outer loop
         vertex 7.500000e-01 1.697084e-01 -1.000000e+00
         vertex 1.589326e+00 1.697084e-01 1.162211e-09
         vertex 7.500000e-01 1.697084e-01 1.162211e-09
      endloop
   endfacet
   facet normal 0.000000e+00 -1.000000e+00 0.000000e+00
      outer loop
         vertex 4.009275e+00 1.697084e-01 -4.893786e-02
         vertex 3.606226e+00 1.697084e-01 -8.160761e-02
         vertex 5.250000e+00 1.697084e-01 -1.000000e+00
      endloop
   endfacet
   facet normal 0.000000e+00 -1.000000e+00 0.000000e+00
      outer loop
         vertex 5.250000e+00 1.697084e-01 -1.000000e+00
         vertex 3.606226e+00 1.697084e-01 -8.160761e-02
         vertex 3.202186e+00 1.697084e-01 -9.795585e-02
      endloop
   endfacet
   facet normal 0.000000e+00 -1.000000e+00 0.000000e+00
      outer loop
         vertex 5.250000e+00 1.697084e-01 -1.000000e+00
         vertex 3.202186e+00 1.697084e-01 -9.795585e-02
         vertex 7.500000e-01 1.697084e-01 -1.000000e+00
      endloop
   endfacet
   facet normal 0.000000e+00 -1.000000e+00 0.000000e+00
      outer loop
         vertex 7.500000e-01 1.697084e-01 -1.000000e+00
         vertex 3.202186e+00 1.697084e-01 -9.795585e-02
         vertex 2.797814e+00 1.697084e-01 -9.795585e-02
      endloop
   endfacet
   facet normal 0.000000e+00 -1.000000e+00 0.000000e+00
      outer loop
         vertex 7.500000e-01 1.697084e-01 -1.000000e+00
         vertex 2.797814e+00 1.697084e-01 -9.795585e-02
         vertex 2.393774e+00 1.697084e-01 -8.160761e-02
      endloop
   endfacet
   facet normal 0.000000e+00 1.000000e+00 0.000000e+00
      outer loop
         vertex 3.606226e+00 1.669708e+00 -8.160761e-02
         vertex 4.009275e+00 1.669708e+00 -4.893786e-02
         vertex 5.250000e+00 1.669708e+00 -1.000000e+00
      endloop
   endfacet
   facet normal 0.000000e+00 1.000000e+00 0.000000e+00
      outer loop
         vertex 5.250000e+00 1.669708e+00 -1.000000e+00
         vertex 4.009275e+00 1.669708e+00 -4.893786e-02
         vertex 4.410674e+00 1.669708e+00 1.162211e-09
      endloop
   endfacet
   facet normal 0.000000e+00 1.000000e+00 0.000000e+00
      outer loop
         vertex 5.250000e+00 1.669708e+00 -1.000000e+00
         vertex 4.410674e+00 1.669708e+00 1.162211e-09
         vertex 5.250000e+00 1.669708e+00 1.162211e-09
      endloop
   endfacet
   facet normal 0.000000e+00 1.000000e+00 0.000000e+00
      outer loop
         vertex 1.990725e+00 1.669708e+00 -4.893786e-02
         vertex 7.500000e-01 1.669708e+00 -1.000000e+00
         vertex 1.589326e+00 1.669708e+00 1.162211e-09
      endloop
   endfacet
   facet normal 0.000000e+00 1.000000e+00 0.000000e+00
      outer loop
         vertex 1.589326e+00 1.669708e+00 1.162211e-09
         vertex 7.500000e-01 1.669708e+00 -1.000000e+00
         vertex 7.500000e-01 1.669708e+00 1.162211e-09
      endloop
   endfacet
   facet normal 0.000000e+00 1.000000e+00 -0.000000e+00
      outer loop
         vertex 1.990725e+00 1.669708e+00 -4.893786e-02
         vertex 2.393774e+00 1.669708e+00 -8.160761e-02
         vertex 7.500000e-01 1.669708e+00 -1.000000e+00
      endloop
   endfacet
   facet normal 0.000000e+00 1.000000e+00 0.000000e+00
      outer loop
         vertex 7.500000e-01 1.669708e+00 -1.000000e+00
         vertex 2.393774e+00 1.669708e+00 -8.160761e-02
         vertex 2.797814e+00 1.669708e+00 -9.795585e-02
      endloop
   endfacet
   facet normal 0.000000e+00 1.000000e+00 0.000000e+00
      outer loop
         vertex 7.500000e-01 1.669708e+00 -1.000000e+00
         vertex 2.797814e+00 1.669708e+00 -9.795585e-02
         vertex 5.250000e+00 1.669708e+00 -1.000000e+00
      endloop
   endfacet
   facet normal 0.000000e+00 1.000000e+00 0.000000e+00
      outer loop
         vertex 5.250000e+00 1.669708e+00 -1.000000e+00
         vertex 2.797814e+00 1.669708e+00 -9.795585e-02
         vertex 3.202186e+00 1.669708e+00 -9.795585e-02
      endloop
   endfacet
   facet normal 0.000000e+00 1.000000e+00 0.000000e+00
      outer loop
         vertex 5.250000e+00 1.669708e+00 -1.000000e+00
         vertex 3.202186e+00 1.669708e+00 -9.795585e-02
         vertex 3.606226e+00 1.669708e+00 -8.160761e-02
      endloop
   endfacet
   facet normal 1.210222e-01 0.000000e+00 9.926498e-01
      outer loop
         vertex 1.589326e+00 1.669708e+00 1.162211e-09
         vertex 1.589326e+00 1.697084e-01 1.162211e-09
         vertex 1.990725e+00 1.669708e+00 -4.893786e-02
      endloop
   endfacet
   facet normal 1.210222e-01 0.000000e+00 9.926498e-01
      outer loop
         vertex 1.990725e+00 1.669708e+00 -4.893786e-02
         vertex 1.589326e+00 1.697084e-01 1.162211e-09
         vertex 1.990725e+00 1.697084e-01 -4.893786e-02
      endloop
   endfacet
   facet normal 8.079154e-02 0.000000e+00 9.967310e-01
      outer loop
         vertex 1.990725e+00 1.669708e+00 -4.893786e-02
         vertex 1.990725e+00 1.697084e-01 -4.893786e-02
         vertex 2.393774e+00 1.669708e+00 -8.160761e-02
      endloop
   endfacet
   facet normal 8.079154e-02 0.000000e+00 9.967310e-01
      outer loop
         vertex 2.393774e+00 1.669708e+00 -8.160761e-02
         vertex 1.990725e+00 1.697084e-01 -4.893786e-02
         vertex 2.393774e+00 1.697084e-01 -8.160761e-02
      endloop
   endfacet
   facet normal 4.042883e-02 0.000000e+00 9.991824e-01
      outer loop
         vertex 2.393774e+00 1.669708e+00 -8.160761e-02
         vertex 2.393774e+00 1.697084e-01 -8.160761e-02
         vertex 2.797814e+00 1.669708e+00 -9.795585e-02
      endloop
   endfacet
   facet normal 4.042883e-02 0.000000e+00 9.991824e-01
      outer loop
         vertex 2.797814e+00 1.669708e+00 -9.795585e-02
         vertex 2.393774e+00 1.697084e-01 -8.160761e-02
         vertex 2.797814e+00 1.697084e-01 -9.795585e-02
      endloop
   endfacet
   facet normal 0.000000e+00 0.000000e+00 1.000000e+00
      outer loop
         vertex 2.797814e+00 1.669708e+00 -9.795585e-02
         vertex 2.797814e+00 1.697084e-01 -9.795585e-02
         vertex 3.202186e+00 1.669708e+00 -9.795585e-02
      endloop
   endfacet
   facet normal 0.000000e+00 0.000000e+00 1.000000e+00
      outer loop
         vertex 3.202186e+00 1.669708e+00 -9.795585e-02
         vertex 2.797814e+00 1.697084e-01 -9.795585e-02
         vertex 3.202186e+00 1.697084e-01 -9.795585e-02
      endloop
   endfacet
   facet normal -4.042883e-02 0.000000e+00 9.991824e-01
      outer loop
         vertex 3.202186e+00 1.669708e+00 -9.795585e-02
         vertex 3.202186e+00 1.697084e-01 -9.795585e-02
         vertex 3.606226e+00 1.669708e+00 -8.160761e-02
      endloop
   endfacet
   facet normal -4.042883e-02 0.000000e+00 9.991824e-01
      outer loop
         vertex 3.606226e+00 1.669708e+00 -8.160761e-02
         vertex 3.202186e+00 1.697084e-01 -9.795585e-02
         vertex 3.606226e+00 1.697084e-01 -8.160761e-02
      endloop
   endfacet
   facet normal -8.079156e-02 0.000000e+00 9.967310e-01
      outer loop
         vertex 3.606226e+00 1.669708e+00 -8.160761e-02
         vertex 3.606226e+00 1.697084e-01 -8.160761e-02
         vertex 4.009275e+00 1.669708e+00 -4.893786e-02
      endloop
   endfacet
   facet normal -8.079156e-02 0.000000e+00 9.967310e-01
      outer loop
         vertex 4.009275e+00 1.669708e+00 -4.893786e-02
         vertex 3.606226e+00 1.697084e-01 -8.160761e-02
         vertex 4.009275e+00 1.697084e-01 -4.893786e-02
      endloop
   endfacet
   facet normal -1.210222e-01 0.000000e+00 9.926498e-01
      outer loop
         vertex 4.009275e+00 1.669708e+00 -4.893786e-02
         vertex 4.009275e+00 1.697084e-01 -4.893786e-02
         vertex 4.410674e+00 1.669708e+00 1.162211e-09
      endloop
   endfacet
   facet normal -1.210222e-01 0.000000e+00 9.926498e-01
      outer loop
         vertex 4.410674e+00 1.669708e+00 1.162211e-09
         vertex 4.009275e+00 1.697084e-01 -4.893786e-02
         vertex 4.410674e+00 1.697084e-01 1.162211e-09
      endloop
   endfacet
endsolid