solid field2023_athletics-intermediate_step-2
   facet normal 1.000000e+00 0.000000e+00 0.000000e+00
      outer loop
         vertex 6.750000e+00 -2.000000e+00 -5.740177e-08
         vertex 6.750000e+00 -2.000000e+00 -1.000000e+00
         vertex 6.750000e+00 2.000000e+00 -5.740177e-08
      endloop
   endfacet
   facet normal 1.000000e+00 0.000000e+00 0.000000e+00
      outer loop
         vertex 6.750000e+00 2.000000e+00 -5.740177e-08
         vertex 6.750000e+00 -2.000000e+00 -1.000000e+00
         vertex 6.750000e+00 2.000000e+00 -1.000000e+00
      endloop
   endfacet
   facet normal 0.000000e+00 0.000000e+00 1.000000e+00
      outer loop
         vertex 5.250000e+00 -2.000000e+00 -5.740177e-08
         vertex 6.750000e+00 -2.000000e+00 -5.740177e-08
         vertex 5.250000e+00 2.000000e+00 -5.740177e-08
      endloop
   endfacet
   facet normal 0.000000e+00 0.000000e+00 1.000000e+00
      outer loop
         vertex 5.250000e+00 2.000000e+00 -5.740177e-08
         vertex 6.750000e+00 -2.000000e+00 -5.740177e-08
         vertex 6.750000e+00 2.000000e+00 -5.740177e-08
      endloop
   endfacet
   facet normal -1.000000e+00 0.000000e+00 0.000000e+00
      outer loop
         vertex 5.250000e+00 -2.000000e+00 -1.000000e+00
         vertex 5.250000e+00 -2.000000e+00 -5.740177e-08
         vertex 5.250000e+00 2.000000e+00 -1.000000e+00
      endloop
   endfacet
   facet normal -1.000000e+00 0.000000e+00 0.000000e+00
      outer loop
         vertex 5.250000e+00 2.000000e+00 -1.000000e+00
         vertex 5.250000e+00 -2.000000e+00 -5.740177e-08
         vertex 5.250000e+00 2.000000e+00 -5.740177e-08
      endloop
   endfacet
   facet normal -0.000000e+00 0.000000e+00 -1.000000e+00
      outer loop
         vertex 6.750000e+00 -2.000000e+00 -1.000000e+00
         vertex 5.250000e+00 -2.000000e+00 -1.000000e+00
         vertex 6.750000e+00 2.000000e+00 -1.000000e+00
      endloop
   endfacet
   facet normal 0.000000e+00 0.000000e+00 -1.000000e+00
      outer loop
         vertex 6.750000e+00 2.000000e+00 -1.000000e+00
         vertex 5.250000e+00 -2.000000e+00 -1.000000e+00
         vertex 5.250000e+00 2.000000e+00 -1.000000e+00
      endloop
   endfacet
   facet normal 0.000000e+00 -1.000000e+00 0.000000e+00
      outer loop
         vertex 5.250000e+00 -2.000000e+00 -5.740177e-08
         vertex 5.250000e+00 -2.000000e+00 -1.000000e+00
         vertex 6.750000e+00 -2.000000e+00 -5.740177e-08
      endloop
   endfacet
   facet normal 0.000000e+00 -1.000000e+00 0.000000e+00
      outer loop
         vertex 6.750000e+00 -2.000000e+00 -5.740177e-08
         vertex 5.250000e+00 -2.000000e+00 -1.000000e+00
         vertex 6.750000e+00 -2.000000e+00 -1.000000e+00
      endloop
   endfacet
   facet normal 0.000000e+00 1.000000e+00 0.000000e+00
      outer loop
         vertex 5.250000e+00 2.000000e+00 -1.000000e+00
         vertex 5.250000e+00 2.000000e+00 -5.740177e-08
         vertex 6.750000e+00 2.000000e+00 -1.000000e+00
      endloop
   endfacet
   facet normal 0.000000e+00 1.000000e+00 0.000000e+00
      outer loop
         vertex 6.750000e+00 2.000000e+00 -1.000000e+00
         vertex 5.250000e+00 2.000000e+00 -5.740177e-08
         vertex 6.750000e+00 2.000000e+00 -5.740177e-08
      endloop
   endfacet
endsolid