solid field2023_athletics-frame1-4
   facet normal -9.659258e-01 0.000000e+00 2.588190e-01
      outer loop
         vertex 3.709166e+00 -6.200000e-01 1.100000e+00
         vertex 3.709166e+00 -5.100000e-01 1.100000e+00
         vertex 3.146472e+00 -6.200000e-01 -1.000000e+00
      endloop
   endfacet
   facet normal -9.659258e-01 0.000000e+00 2.588190e-01
      outer loop
         vertex 3.146472e+00 -6.200000e-01 -1.000000e+00
         vertex 3.709166e+00 -5.100000e-01 1.100000e+00
         vertex 3.146472e+00 -5.100000e-01 -1.000000e+00
      endloop
   endfacet
   facet normal 0.000000e+00 0.000000e+00 1.000000e+00
      outer loop
         vertex 3.862631e+00 -6.200000e-01 1.100000e+00
         vertex 3.862631e+00 -5.100000e-01 1.100000e+00
         vertex 3.709166e+00 -6.200000e-01 1.100000e+00
      endloop
   endfacet
   facet normal 0.000000e+00 0.000000e+00 1.000000e+00
      outer loop
         vertex 3.709166e+00 -6.200000e-01 1.100000e+00
         vertex 3.862631e+00 -5.100000e-01 1.100000e+00
         vertex 3.709166e+00 -5.100000e-01 1.100000e+00
      endloop
   endfacet
   facet normal 9.659258e-01 0.000000e+00 2.588191e-01
      outer loop
         vertex 4.425324e+00 -6.200000e-01 -1.000000e+00
         vertex 4.425324e+00 -5.100000e-01 -1.000000e+00
         vertex 3.862631e+00 -6.200000e-01 1.100000e+00
      endloop
   endfacet
   facet normal 9.659258e-01 0.000000e+00 2.588191e-01
      outer loop
         vertex 3.862631e+00 -6.200000e-01 1.100000e+00
         vertex 4.425324e+00 -5.100000e-01 -1.000000e+00
         vertex 3.862631e+00 -5.100000e-01 1.100000e+00
      endloop
   endfacet
   facet normal 0.000000e+00 0.000000e+00 -1.000000e+00
      outer loop
         vertex 4.321797e+00 -6.200000e-01 -1.000000e+00
         vertex 4.321797e+00 -5.100000e-01 -1.000000e+00
         vertex 4.425324e+00 -6.200000e-01 -1.000000e+00
      endloop
   endfacet
   facet normal 0.000000e+00 0.000000e+00 -1.000000e+00
      outer loop
         vertex 4.425324e+00 -6.200000e-01 -1.000000e+00
         vertex 4.321797e+00 -5.100000e-01 -1.000000e+00
         vertex 4.425324e+00 -5.100000e-01 -1.000000e+00
      endloop
   endfacet
   facet normal -9.659258e-01 0.000000e+00 -2.588190e-01
      outer loop
         vertex 3.785898e+00 -6.200000e-01 1.000000e+00
         vertex 3.785898e+00 -5.100000e-01 1.000000e+00
         vertex 4.321797e+00 -6.200000e-01 -1.000000e+00
      endloop
   endfacet
   facet normal -9.659258e-01 0.000000e+00 -2.588190e-01
      outer loop
         vertex 4.321797e+00 -6.200000e-01 -1.000000e+00
         vertex 3.785898e+00 -5.100000e-01 1.000000e+00
         vertex 4.321797e+00 -5.100000e-01 -1.000000e+00
      endloop
   endfacet
   facet normal 9.659258e-01 0.000000e+00 -2.588190e-01
      outer loop
         vertex 3.250000e+00 -6.200000e-01 -1.000000e+00
         vertex 3.250000e+00 -5.100000e-01 -1.000000e+00
         vertex 3.785898e+00 -6.200000e-01 1.000000e+00
      endloop
   endfacet
   facet normal 9.659258e-01 0.000000e+00 -2.588190e-01
      outer loop
         vertex 3.785898e+00 -6.200000e-01 1.000000e+00
         vertex 3.250000e+00 -5.100000e-01 -1.000000e+00
         vertex 3.785898e+00 -5.100000e-01 1.000000e+00
      endloop
   endfacet
   facet normal 0.000000e+00 0.000000e+00 -1.000000e+00
      outer loop
         vertex 3.146472e+00 -6.200000e-01 -1.000000e+00
         vertex 3.146472e+00 -5.100000e-01 -1.000000e+00
         vertex 3.250000e+00 -6.200000e-01 -1.000000e+00
      endloop
   endfacet
   facet normal 0.000000e+00 0.000000e+00 -1.000000e+00
      outer loop
         vertex 3.250000e+00 -6.200000e-01 -1.000000e+00
         vertex 3.146472e+00 -5.100000e-01 -1.000000e+00
         vertex 3.250000e+00 -5.100000e-01 -1.000000e+00
      endloop
   endfacet
   facet normal 0.000000e+00 1.000000e+00 0.000000e+00
      outer loop
         vertex 3.785898e+00 -5.100000e-01 1.000000e+00
         vertex 3.250000e+00 -5.100000e-01 -1.000000e+00
         vertex 3.146472e+00 -5.100000e-01 -1.000000e+00
      endloop
   endfacet
   facet normal 0.000000e+00 1.000000e+00 0.000000e+00
      outer loop
         vertex 4.425324e+00 -5.100000e-01 -1.000000e+00
         vertex 4.321797e+00 -5.100000e-01 -1.000000e+00
         vertex 3.862631e+00 -5.100000e-01 1.100000e+00
      endloop
   endfacet
   facet normal 0.000000e+00 1.000000e+00 -0.000000e+00
      outer loop
         vertex 3.862631e+00 -5.100000e-01 1.100000e+00
         vertex 4.321797e+00 -5.100000e-01 -1.000000e+00
         vertex 3.785898e+00 -5.100000e-01 1.000000e+00
      endloop
   endfacet
   facet normal 0.000000e+00 1.000000e+00 0.000000e+00
      outer loop
         vertex 3.862631e+00 -5.100000e-01 1.100000e+00
         vertex 3.785898e+00 -5.100000e-01 1.000000e+00
         vertex 3.709166e+00 -5.100000e-01 1.100000e+00
      endloop
   endfacet
   facet normal 0.000000e+00 1.000000e+00 -0.000000e+00
      outer loop
         vertex 3.709166e+00 -5.100000e-01 1.100000e+00
         vertex 3.785898e+00 -5.100000e-01 1.000000e+00
         vertex 3.146472e+00 -5.100000e-01 -1.000000e+00
      endloop
   endfacet
   facet normal 0.000000e+00 -1.000000e+00 0.000000e+00
      outer loop
         vertex 3.785898e+00 -6.200000e-01 1.000000e+00
         vertex 4.321797e+00 -6.200000e-01 -1.000000e+00
         vertex 4.425324e+00 -6.200000e-01 -1.000000e+00
      endloop
   endfacet
   facet normal 0.000000e+00 -1.000000e+00 0.000000e+00
      outer loop
         vertex 3.146472e+00 -6.200000e-01 -1.000000e+00
         vertex 3.250000e+00 -6.200000e-01 -1.000000e+00
         vertex 3.709166e+00 -6.200000e-01 1.100000e+00
      endloop
   endfacet
   facet normal 0.000000e+00 -1.000000e+00 0.000000e+00
      outer loop
         vertex 3.709166e+00 -6.200000e-01 1.100000e+00
         vertex 3.250000e+00 -6.200000e-01 -1.000000e+00
         vertex 3.785898e+00 -6.200000e-01 1.000000e+00
      endloop
   endfacet
   facet normal 0.000000e+00 -1.000000e+00 0.000000e+00
      outer loop
         vertex 3.709166e+00 -6.200000e-01 1.100000e+00
         vertex 3.785898e+00 -6.200000e-01 1.000000e+00
         vertex 3.862631e+00 -6.200000e-01 1.100000e+00
      endloop
   endfacet
   facet normal 0.000000e+00 -1.000000e+00 0.000000e+00
      outer loop
         vertex 3.862631e+00 -6.200000e-01 1.100000e+00
         vertex 3.785898e+00 -6.200000e-01 1.000000e+00
         vertex 4.425324e+00 -6.200000e-01 -1.000000e+00
      endloop
   endfacet
endsolid