solid field2023_athletics-start0-1
   facet normal 1.000000e+00 0.000000e+00 0.000000e+00
      outer loop
         vertex 7.500000e-01 -2.000000e+00 -5.740173e-08
         vertex 7.500000e-01 -2.000000e+00 -1.000000e+00
         vertex 7.500000e-01 2.000000e+00 -5.740173e-08
      endloop
   endfacet
   facet normal 1.000000e+00 0.000000e+00 0.000000e+00
      outer loop
         vertex 7.500000e-01 2.000000e+00 -5.740173e-08
         vertex 7.500000e-01 -2.000000e+00 -1.000000e+00
         vertex 7.500000e-01 2.000000e+00 -1.000000e+00
      endloop
   endfacet
   facet normal 0.000000e+00 0.000000e+00 1.000000e+00
      outer loop
         vertex -7.500000e-01 -2.000000e+00 -5.740173e-08
         vertex 7.500000e-01 -2.000000e+00 -5.740173e-08
         vertex -7.500000e-01 2.000000e+00 -5.740173e-08
      endloop
   endfacet
   facet normal 0.000000e+00 0.000000e+00 1.000000e+00
      outer loop
         vertex -7.500000e-01 2.000000e+00 -5.740173e-08
         vertex 7.500000e-01 -2.000000e+00 -5.740173e-08
         vertex 7.500000e-01 2.000000e+00 -5.740173e-08
      endloop
   endfacet
   facet normal -1.000000e+00 0.000000e+00 0.000000e+00
      outer loop
         vertex -7.500000e-01 -2.000000e+00 -1.000000e+00
         vertex -7.500000e-01 -2.000000e+00 -5.740173e-08
         vertex -7.500000e-01 2.000000e+00 -1.000000e+00
      endloop
   endfacet
   facet normal -1.000000e+00 0.000000e+00 0.000000e+00
      outer loop
         vertex -7.500000e-01 2.000000e+00 -1.000000e+00
         vertex -7.500000e-01 -2.000000e+00 -5.740173e-08
         vertex -7.500000e-01 2.000000e+00 -5.740173e-08
      endloop
   endfacet
   facet normal -0.000000e+00 0.000000e+00 -1.000000e+00
      outer loop
         vertex 7.500000e-01 -2.000000e+00 -1.000000e+00
         vertex -7.500000e-01 -2.000000e+00 -1.000000e+00
         vertex 7.500000e-01 2.000000e+00 -1.000000e+00
      endloop
   endfacet
   facet normal 0.000000e+00 0.000000e+00 -1.000000e+00
      outer loop
         vertex 7.500000e-01 2.000000e+00 -1.000000e+00
         vertex -7.500000e-01 -2.000000e+00 -1.000000e+00
         vertex -7.500000e-01 2.000000e+00 -1.000000e+00
      endloop
   endfacet
   facet normal 0.000000e+00 -1.000000e+00 0.000000e+00
      outer loop
         vertex -7.500000e-01 -2.000000e+00 -5.740173e-08
         vertex -7.500000e-01 -2.000000e+00 -1.000000e+00
         vertex 7.500000e-01 -2.000000e+00 -5.740173e-08
      endloop
   endfacet
   facet normal 0.000000e+00 -1.000000e+00 0.000000e+00
      outer loop
         vertex 7.500000e-01 -2.000000e+00 -5.740173e-08
         vertex -7.500000e-01 -2.000000e+00 -1.000000e+00
         vertex 7.500000e-01 -2.000000e+00 -1.000000e+00
      endloop
   endfacet
   facet normal 0.000000e+00 1.000000e+00 0.000000e+00
      outer loop
         vertex -7.500000e-01 2.000000e+00 -1.000000e+00
         vertex -7.500000e-01 2.000000e+00 -5.740173e-08
         vertex 7.500000e-01 2.000000e+00 -1.000000e+00
      endloop
   endfacet
   facet normal 0.000000e+00 1.000000e+00 0.000000e+00
      outer loop
         vertex 7.500000e-01 2.000000e+00 -1.000000e+00
         vertex -7.500000e-01 2.000000e+00 -5.740173e-08
         vertex 7.500000e-01 2.000000e+00 -5.740173e-08
      endloop
   endfacet
endsolid