solid field2023_athletics-movable_plate-1
   facet normal -1.000000e+00 0.000000e+00 0.000000e+00
      outer loop
         vertex 1.255476e+00 -1.374862e+00 1.046754e-02
         vertex 1.255476e+00 -1.374862e+00 1.104675e-01
         vertex 1.255476e+00 -6.748621e-01 1.046754e-02
      endloop
   endfacet
   facet normal -1.000000e+00 0.000000e+00 0.000000e+00
      outer loop
         vertex 1.255476e+00 -6.748621e-01 1.046754e-02
         vertex 1.255476e+00 -1.374862e+00 1.104675e-01
         vertex 1.255476e+00 -6.748621e-01 1.104675e-01
      endloop
   endfacet
   facet normal -0.000000e+00 0.000000e+00 -1.000000e+00
      outer loop
         vertex 4.255476e+00 -1.374862e+00 1.046754e-02
         vertex 1.255476e+00 -1.374862e+00 1.046754e-02
         vertex 4.255476e+00 -6.748621e-01 1.046754e-02
      endloop
   endfacet
   facet normal 0.000000e+00 0.000000e+00 -1.000000e+00
      outer loop
         vertex 4.255476e+00 -6.748621e-01 1.046754e-02
         vertex 1.255476e+00 -1.374862e+00 1.046754e-02
         vertex 1.255476e+00 -6.748621e-01 1.046754e-02
      endloop
   endfacet
   facet normal 1.000000e+00 0.000000e+00 0.000000e+00
      outer loop
         vertex 4.255476e+00 -1.374862e+00 1.104675e-01
         vertex 4.255476e+00 -1.374862e+00 1.046754e-02
         vertex 4.255476e+00 -6.748621e-01 1.104675e-01
      endloop
   endfacet
   facet normal 1.000000e+00 0.000000e+00 0.000000e+00
      outer loop
         vertex 4.255476e+00 -6.748621e-01 1.104675e-01
         vertex 4.255476e+00 -1.374862e+00 1.046754e-02
         vertex 4.255476e+00 -6.748621e-01 1.046754e-02
      endloop
   endfacet
   facet normal 0.000000e+00 0.000000e+00 1.000000e+00
      outer loop
         vertex 1.255476e+00 -1.374862e+00 1.104675e-01
         vertex 4.255476e+00 -1.374862e+00 1.104675e-01
         vertex 1.255476e+00 -6.748621e-01 1.104675e-01
      endloop
   endfacet
   facet normal 0.000000e+00 0.000000e+00 1.000000e+00
      outer loop
         vertex 1.255476e+00 -6.748621e-01 1.104675e-01
         vertex 4.255476e+00 -1.374862e+00 1.104675e-01
         vertex 4.255476e+00 -6.748621e-01 1.104675e-01
      endloop
   endfacet
   facet normal 0.000000e+00 -1.000000e+00 0.000000e+00
      outer loop
         vertex 4.255476e+00 -1.374862e+00 1.046754e-02
         vertex 4.255476e+00 -1.374862e+00 1.104675e-01
         vertex 1.255476e+00 -1.374862e+00 1.046754e-02
      endloop
   endfacet
   facet normal 0.000000e+00 -1.000000e+00 0.000000e+00
      outer loop
         vertex 1.255476e+00 -1.374862e+00 1.046754e-02
         vertex 4.255476e+00 -1.374862e+00 1.104675e-01
         vertex 1.255476e+00 -1.374862e+00 1.104675e-01
      endloop
   endfacet
   facet normal -0.000000e+00 1.000000e+00 0.000000e+00
      outer loop
         vertex 4.255476e+00 -6.748621e-01 1.104675e-01
         vertex 4.255476e+00 -6.748621e-01 1.046754e-02
         vertex 1.255476e+00 -6.748621e-01 1.104675e-01
      endloop
   endfacet
   facet normal 0.000000e+00 1.000000e+00 0.000000e+00
      outer loop
         vertex 1.255476e+00 -6.748621e-01 1.104675e-01
         vertex 4.255476e+00 -6.748621e-01 1.046754e-02
         vertex 1.255476e+00 -6.748621e-01 1.046754e-02
      endloop
   endfacet
endsolid