solid field2023_athletics-goal1-3
   facet normal 1.000000e+00 0.000000e+00 0.000000e+00
      outer loop
         vertex 7.750000e+00 -1.250000e+00 -5.740177e-08
         vertex 7.750000e+00 -1.250000e+00 -1.000000e+00
         vertex 7.750000e+00 -7.500000e-01 -5.740177e-08
      endloop
   endfacet
   facet normal 1.000000e+00 0.000000e+00 0.000000e+00
      outer loop
         vertex 7.750000e+00 -7.500000e-01 -5.740177e-08
         vertex 7.750000e+00 -1.250000e+00 -1.000000e+00
         vertex 7.750000e+00 -7.500000e-01 -1.000000e+00
      endloop
   endfacet
   facet normal 0.000000e+00 0.000000e+00 1.000000e+00
      outer loop
         vertex 6.750000e+00 -1.250000e+00 -5.740177e-08
         vertex 7.750000e+00 -1.250000e+00 -5.740177e-08
         vertex 6.750000e+00 -7.500000e-01 -5.740177e-08
      endloop
   endfacet
   facet normal 0.000000e+00 0.000000e+00 1.000000e+00
      outer loop
         vertex 6.750000e+00 -7.500000e-01 -5.740177e-08
         vertex 7.750000e+00 -1.250000e+00 -5.740177e-08
         vertex 7.750000e+00 -7.500000e-01 -5.740177e-08
      endloop
   endfacet
   facet normal -1.000000e+00 0.000000e+00 0.000000e+00
      outer loop
         vertex 6.750000e+00 -1.250000e+00 -1.000000e+00
         vertex 6.750000e+00 -1.250000e+00 -5.740177e-08
         vertex 6.750000e+00 -7.500000e-01 -1.000000e+00
      endloop
   endfacet
   facet normal -1.000000e+00 0.000000e+00 0.000000e+00
      outer loop
         vertex 6.750000e+00 -7.500000e-01 -1.000000e+00
         vertex 6.750000e+00 -1.250000e+00 -5.740177e-08
         vertex 6.750000e+00 -7.500000e-01 -5.740177e-08
      endloop
   endfacet
   facet normal -0.000000e+00 0.000000e+00 -1.000000e+00
      outer loop
         vertex 7.750000e+00 -1.250000e+00 -1.000000e+00
         vertex 6.750000e+00 -1.250000e+00 -1.000000e+00
         vertex 7.750000e+00 -7.500000e-01 -1.000000e+00
      endloop
   endfacet
   facet normal 0.000000e+00 0.000000e+00 -1.000000e+00
      outer loop
         vertex 7.750000e+00 -7.500000e-01 -1.000000e+00
         vertex 6.750000e+00 -1.250000e+00 -1.000000e+00
         vertex 6.750000e+00 -7.500000e-01 -1.000000e+00
      endloop
   endfacet
   facet normal 0.000000e+00 -1.000000e+00 0.000000e+00
      outer loop
         vertex 6.750000e+00 -1.250000e+00 -5.740177e-08
         vertex 6.750000e+00 -1.250000e+00 -1.000000e+00
         vertex 7.750000e+00 -1.250000e+00 -5.740177e-08
      endloop
   endfacet
   facet normal 0.000000e+00 -1.000000e+00 0.000000e+00
      outer loop
         vertex 7.750000e+00 -1.250000e+00 -5.740177e-08
         vertex 6.750000e+00 -1.250000e+00 -1.000000e+00
         vertex 7.750000e+00 -1.250000e+00 -1.000000e+00
      endloop
   endfacet
   facet normal 0.000000e+00 1.000000e+00 0.000000e+00
      outer loop
         vertex 6.750000e+00 -7.500000e-01 -1.000000e+00
         vertex 6.750000e+00 -7.500000e-01 -5.740177e-08
         vertex 7.750000e+00 -7.500000e-01 -1.000000e+00
      endloop
   endfacet
   facet normal 0.000000e+00 1.000000e+00 0.000000e+00
      outer loop
         vertex 7.750000e+00 -7.500000e-01 -1.000000e+00
         vertex 6.750000e+00 -7.500000e-01 -5.740177e-08
         vertex 7.750000e+00 -7.500000e-01 -5.740177e-08
      endloop
   endfacet
endsolid