solid field2023_athletics-goal1-2
   facet normal 1.000000e+00 0.000000e+00 0.000000e+00
      outer loop
         vertex 1.135000e+01 -1.250000e+00 -5.740175e-08
         vertex 1.135000e+01 -1.250000e+00 -1.000000e+00
         vertex 1.135000e+01 -7.500000e-01 -5.740175e-08
      endloop
   endfacet
   facet normal 1.000000e+00 0.000000e+00 0.000000e+00
      outer loop
         vertex 1.135000e+01 -7.500000e-01 -5.740175e-08
         vertex 1.135000e+01 -1.250000e+00 -1.000000e+00
         vertex 1.135000e+01 -7.500000e-01 -1.000000e+00
      endloop
   endfacet
   facet normal 0.000000e+00 0.000000e+00 1.000000e+00
      outer loop
         vertex 1.035000e+01 -1.250000e+00 -5.740175e-08
         vertex 1.135000e+01 -1.250000e+00 -5.740175e-08
         vertex 1.035000e+01 -7.500000e-01 -5.740175e-08
      endloop
   endfacet
   facet normal 0.000000e+00 0.000000e+00 1.000000e+00
      outer loop
         vertex 1.035000e+01 -7.500000e-01 -5.740175e-08
         vertex 1.135000e+01 -1.250000e+00 -5.740175e-08
         vertex 1.135000e+01 -7.500000e-01 -5.740175e-08
      endloop
   endfacet
   facet normal -1.000000e+00 0.000000e+00 0.000000e+00
      outer loop
         vertex 1.035000e+01 -1.250000e+00 -1.000000e+00
         vertex 1.035000e+01 -1.250000e+00 -5.740175e-08
         vertex 1.035000e+01 -7.500000e-01 -1.000000e+00
      endloop
   endfacet
   facet normal -1.000000e+00 0.000000e+00 0.000000e+00
      outer loop
         vertex 1.035000e+01 -7.500000e-01 -1.000000e+00
         vertex 1.035000e+01 -1.250000e+00 -5.740175e-08
         vertex 1.035000e+01 -7.500000e-01 -5.740175e-08
      endloop
   endfacet
   facet normal -0.000000e+00 0.000000e+00 -1.000000e+00
      outer loop
         vertex 1.135000e+01 -1.250000e+00 -1.000000e+00
         vertex 1.035000e+01 -1.250000e+00 -1.000000e+00
         vertex 1.135000e+01 -7.500000e-01 -1.000000e+00
      endloop
   endfacet
   facet normal 0.000000e+00 0.000000e+00 -1.000000e+00
      outer loop
         vertex 1.135000e+01 -7.500000e-01 -1.000000e+00
         vertex 1.035000e+01 -1.250000e+00 -1.000000e+00
         vertex 1.035000e+01 -7.500000e-01 -1.000000e+00
      endloop
   endfacet
   facet normal 0.000000e+00 -1.000000e+00 0.000000e+00
      outer loop
         vertex 1.035000e+01 -1.250000e+00 -5.740175e-08
         vertex 1.035000e+01 -1.250000e+00 -1.000000e+00
         vertex 1.135000e+01 -1.250000e+00 -5.740175e-08
      endloop
   endfacet
   facet normal 0.000000e+00 -1.000000e+00 0.000000e+00
      outer loop
         vertex 1.135000e+01 -1.250000e+00 -5.740175e-08
         vertex 1.035000e+01 -1.250000e+00 -1.000000e+00
         vertex 1.135000e+01 -1.250000e+00 -1.000000e+00
      endloop
   endfacet
   facet normal 0.000000e+00 1.000000e+00 0.000000e+00
      outer loop
         vertex 1.035000e+01 -7.500000e-01 -1.000000e+00
         vertex 1.035000e+01 -7.500000e-01 -5.740175e-08
         vertex 1.135000e+01 -7.500000e-01 -1.000000e+00
      endloop
   endfacet
   facet normal 0.000000e+00 1.000000e+00 0.000000e+00
      outer loop
         vertex 1.135000e+01 -7.500000e-01 -1.000000e+00
         vertex 1.035000e+01 -7.500000e-01 -5.740175e-08
         vertex 1.135000e+01 -7.500000e-01 -5.740175e-08
      endloop
   endfacet
endsolid