solid field2023_athletics-goal1-1
   facet normal 1.000000e+00 0.000000e+00 0.000000e+00
      outer loop
         vertex 5.250000e+00 -1.250000e+00 -5.740175e-08
         vertex 5.250000e+00 -1.250000e+00 -1.000000e+00
         vertex 5.250000e+00 -7.500000e-01 -5.740175e-08
      endloop
   endfacet
   facet normal 1.000000e+00 0.000000e+00 0.000000e+00
      outer loop
         vertex 5.250000e+00 -7.500000e-01 -5.740175e-08
         vertex 5.250000e+00 -1.250000e+00 -1.000000e+00
         vertex 5.250000e+00 -7.500000e-01 -1.000000e+00
      endloop
   endfacet
   facet normal 0.000000e+00 0.000000e+00 1.000000e+00
      outer loop
         vertex 4.250000e+00 -1.250000e+00 -5.740175e-08
         vertex 5.250000e+00 -1.250000e+00 -5.740175e-08
         vertex 4.250000e+00 -7.500000e-01 -5.740175e-08
      endloop
   endfacet
   facet normal 0.000000e+00 0.000000e+00 1.000000e+00
      outer loop
         vertex 4.250000e+00 -7.500000e-01 -5.740175e-08
         vertex 5.250000e+00 -1.250000e+00 -5.740175e-08
         vertex 5.250000e+00 -7.500000e-01 -5.740175e-08
      endloop
   endfacet
   facet normal -1.000000e+00 0.000000e+00 0.000000e+00
      outer loop
         vertex 4.250000e+00 -1.250000e+00 -1.000000e+00
         vertex 4.250000e+00 -1.250000e+00 -5.740175e-08
         vertex 4.250000e+00 -7.500000e-01 -1.000000e+00
      endloop
   endfacet
   facet normal -1.000000e+00 0.000000e+00 0.000000e+00
      outer loop
         vertex 4.250000e+00 -7.500000e-01 -1.000000e+00
         vertex 4.250000e+00 -1.250000e+00 -5.740175e-08
         vertex 4.250000e+00 -7.500000e-01 -5.740175e-08
      endloop
   endfacet
   facet normal -0.000000e+00 0.000000e+00 -1.000000e+00
      outer loop
         vertex 5.250000e+00 -1.250000e+00 -1.000000e+00
         vertex 4.250000e+00 -1.250000e+00 -1.000000e+00
         vertex 5.250000e+00 -7.500000e-01 -1.000000e+00
      endloop
   endfacet
   facet normal 0.000000e+00 0.000000e+00 -1.000000e+00
      outer loop
         vertex 5.250000e+00 -7.500000e-01 -1.000000e+00
         vertex 4.250000e+00 -1.250000e+00 -1.000000e+00
         vertex 4.250000e+00 -7.500000e-01 -1.000000e+00
      endloop
   endfacet
   facet normal 0.000000e+00 -1.000000e+00 0.000000e+00
      outer loop
         vertex 4.250000e+00 -1.250000e+00 -5.740175e-08
         vertex 4.250000e+00 -1.250000e+00 -1.000000e+00
         vertex 5.250000e+00 -1.250000e+00 -5.740175e-08
      endloop
   endfacet
   facet normal 0.000000e+00 -1.000000e+00 0.000000e+00
      outer loop
         vertex 5.250000e+00 -1.250000e+00 -5.740175e-08
         vertex 4.250000e+00 -1.250000e+00 -1.000000e+00
         vertex 5.250000e+00 -1.250000e+00 -1.000000e+00
      endloop
   endfacet
   facet normal 0.000000e+00 1.000000e+00 0.000000e+00
      outer loop
         vertex 4.250000e+00 -7.500000e-01 -1.000000e+00
         vertex 4.250000e+00 -7.500000e-01 -5.740175e-08
         vertex 5.250000e+00 -7.500000e-01 -1.000000e+00
      endloop
   endfacet
   facet normal 0.000000e+00 1.000000e+00 0.000000e+00
      outer loop
         vertex 5.250000e+00 -7.500000e-01 -1.000000e+00
         vertex 4.250000e+00 -7.500000e-01 -5.740175e-08
         vertex 5.250000e+00 -7.500000e-01 -5.740175e-08
      endloop
   endfacet
endsolid