solid link1
   facet normal 1.000000e+00 0.000000e+00 -6.251464e-17
      outer loop
         vertex 2.000000e-02 -2.000000e-02 -4.950000e-01
         vertex 2.000000e-02 2.000000e-02 -4.950000e-01
         vertex 2.000000e-02 -2.000000e-02 4.950000e-01
      endloop
   endfacet
   facet normal 1.000000e+00 -0.000000e+00 -6.251464e-17
      outer loop
         vertex 2.000000e-02 -2.000000e-02 4.950000e-01
         vertex 2.000000e-02 2.000000e-02 -4.950000e-01
         vertex 2.000000e-02 2.000000e-02 4.950000e-01
      endloop
   endfacet
   facet normal 9.961947e-01 0.000000e+00 -8.715550e-02
      outer loop
         vertex 2.000000e-02 2.000000e-02 -4.950000e-01
         vertex 2.000000e-02 -2.000000e-02 -4.950000e-01
         vertex 1.969616e-02 -2.000000e-02 -4.984730e-01
      endloop
   endfacet
   facet normal 9.961947e-01 0.000000e+00 -8.715550e-02
      outer loop
         vertex 2.000000e-02 2.000000e-02 -4.950000e-01
         vertex 1.969616e-02 -2.000000e-02 -4.984730e-01
         vertex 1.969616e-02 2.000000e-02 -4.984730e-01
      endloop
   endfacet
   facet normal 9.659255e-01 0.000000e+00 -2.588201e-01
      outer loop
         vertex 1.969616e-02 2.000000e-02 -4.984730e-01
         vertex 1.969616e-02 -2.000000e-02 -4.984730e-01
         vertex 1.879385e-02 -2.000000e-02 -5.018404e-01
      endloop
   endfacet
   facet normal 9.659255e-01 0.000000e+00 -2.588201e-01
      outer loop
         vertex 1.969616e-02 2.000000e-02 -4.984730e-01
         vertex 1.879385e-02 -2.000000e-02 -5.018404e-01
         vertex 1.879385e-02 2.000000e-02 -5.018404e-01
      endloop
   endfacet
   facet normal 9.063100e-01 0.000000e+00 -4.226134e-01
      outer loop
         vertex 1.879385e-02 2.000000e-02 -5.018404e-01
         vertex 1.879385e-02 -2.000000e-02 -5.018404e-01
         vertex 1.732051e-02 -2.000000e-02 -5.050000e-01
      endloop
   endfacet
   facet normal 9.063100e-01 0.000000e+00 -4.226134e-01
      outer loop
         vertex 1.879385e-02 2.000000e-02 -5.018404e-01
         vertex 1.732051e-02 -2.000000e-02 -5.050000e-01
         vertex 1.732051e-02 2.000000e-02 -5.050000e-01
      endloop
   endfacet
   facet normal 8.191487e-01 0.000000e+00 -5.735812e-01
      outer loop
         vertex 1.732051e-02 2.000000e-02 -5.050000e-01
         vertex 1.732051e-02 -2.000000e-02 -5.050000e-01
         vertex 1.532089e-02 -2.000000e-02 -5.078557e-01
      endloop
   endfacet
   facet normal 8.191487e-01 0.000000e+00 -5.735812e-01
      outer loop
         vertex 1.732051e-02 2.000000e-02 -5.050000e-01
         vertex 1.532089e-02 -2.000000e-02 -5.078557e-01
         vertex 1.532089e-02 2.000000e-02 -5.078557e-01
      endloop
   endfacet
   facet normal 7.071057e-01 0.000000e+00 -7.071078e-01
      outer loop
         vertex 1.532089e-02 2.000000e-02 -5.078557e-01
         vertex 1.532089e-02 -2.000000e-02 -5.078557e-01
         vertex 1.285575e-02 -2.000000e-02 -5.103209e-01
      endloop
   endfacet
   facet normal 7.071057e-01 0.000000e+00 -7.071078e-01
      outer loop
         vertex 1.532089e-02 2.000000e-02 -5.078557e-01
         vertex 1.285575e-02 -2.000000e-02 -5.103209e-01
         vertex 1.285575e-02 2.000000e-02 -5.103209e-01
      endloop
   endfacet
   facet normal 5.735760e-01 0.000000e+00 -8.191523e-01
      outer loop
         vertex 1.285575e-02 2.000000e-02 -5.103209e-01
         vertex 1.285575e-02 -2.000000e-02 -5.103209e-01
         vertex 1.000000e-02 -2.000000e-02 -5.123205e-01
      endloop
   endfacet
   facet normal 5.735760e-01 0.000000e+00 -8.191523e-01
      outer loop
         vertex 1.285575e-02 2.000000e-02 -5.103209e-01
         vertex 1.000000e-02 -2.000000e-02 -5.123205e-01
         vertex 1.000000e-02 2.000000e-02 -5.123205e-01
      endloop
   endfacet
   facet normal 4.226236e-01 0.000000e+00 -9.063053e-01
      outer loop
         vertex 1.000000e-02 2.000000e-02 -5.123205e-01
         vertex 1.000000e-02 -2.000000e-02 -5.123205e-01
         vertex 6.840402e-03 -2.000000e-02 -5.137939e-01
      endloop
   endfacet
   facet normal 4.226236e-01 0.000000e+00 -9.063053e-01
      outer loop
         vertex 1.000000e-02 2.000000e-02 -5.123205e-01
         vertex 6.840402e-03 -2.000000e-02 -5.137939e-01
         vertex 6.840402e-03 2.000000e-02 -5.137939e-01
      endloop
   endfacet
   facet normal 2.588171e-01 0.000000e+00 -9.659264e-01
      outer loop
         vertex 6.840402e-03 2.000000e-02 -5.137939e-01
         vertex 6.840402e-03 -2.000000e-02 -5.137939e-01
         vertex 3.472963e-03 -2.000000e-02 -5.146961e-01
      endloop
   endfacet
   facet normal 2.588171e-01 0.000000e+00 -9.659264e-01
      outer loop
         vertex 6.840402e-03 2.000000e-02 -5.137939e-01
         vertex 3.472963e-03 -2.000000e-02 -5.146961e-01
         vertex 3.472963e-03 2.000000e-02 -5.146961e-01
      endloop
   endfacet
   facet normal 8.716126e-02 0.000000e+00 -9.961942e-01
      outer loop
         vertex 3.472963e-03 2.000000e-02 -5.146961e-01
         vertex 3.472963e-03 -2.000000e-02 -5.146961e-01
         vertex -1.722819e-09 -2.000000e-02 -5.150000e-01
      endloop
   endfacet
   facet normal 8.716126e-02 0.000000e+00 -9.961942e-01
      outer loop
         vertex 3.472963e-03 2.000000e-02 -5.146961e-01
         vertex -1.722819e-09 -2.000000e-02 -5.150000e-01
         vertex -1.722819e-09 2.000000e-02 -5.150000e-01
      endloop
   endfacet
   facet normal -8.716136e-02 0.000000e+00 -9.961942e-01
      outer loop
         vertex -1.722819e-09 2.000000e-02 -5.150000e-01
         vertex -1.722819e-09 -2.000000e-02 -5.150000e-01
         vertex -3.472963e-03 -2.000000e-02 -5.146961e-01
      endloop
   endfacet
   facet normal -8.716136e-02 0.000000e+00 -9.961942e-01
      outer loop
         vertex -1.722819e-09 2.000000e-02 -5.150000e-01
         vertex -3.472963e-03 -2.000000e-02 -5.146961e-01
         vertex -3.472963e-03 2.000000e-02 -5.146961e-01
      endloop
   endfacet
   facet normal -2.588171e-01 0.000000e+00 -9.659264e-01
      outer loop
         vertex -3.472963e-03 2.000000e-02 -5.146961e-01
         vertex -3.472963e-03 -2.000000e-02 -5.146961e-01
         vertex -6.840402e-03 -2.000000e-02 -5.137939e-01
      endloop
   endfacet
   facet normal -2.588171e-01 0.000000e+00 -9.659264e-01
      outer loop
         vertex -3.472963e-03 2.000000e-02 -5.146961e-01
         vertex -6.840402e-03 -2.000000e-02 -5.137939e-01
         vertex -6.840402e-03 2.000000e-02 -5.137939e-01
      endloop
   endfacet
   facet normal -4.226236e-01 0.000000e+00 -9.063053e-01
      outer loop
         vertex -6.840402e-03 2.000000e-02 -5.137939e-01
         vertex -6.840402e-03 -2.000000e-02 -5.137939e-01
         vertex -1.000000e-02 -2.000000e-02 -5.123205e-01
      endloop
   endfacet
   facet normal -4.226236e-01 0.000000e+00 -9.063053e-01
      outer loop
         vertex -6.840402e-03 2.000000e-02 -5.137939e-01
         vertex -1.000000e-02 -2.000000e-02 -5.123205e-01
         vertex -1.000000e-02 2.000000e-02 -5.123205e-01
      endloop
   endfacet
   facet normal -5.735755e-01 0.000000e+00 -8.191527e-01
      outer loop
         vertex -1.000000e-02 2.000000e-02 -5.123205e-01
         vertex -1.000000e-02 -2.000000e-02 -5.123205e-01
         vertex -1.285576e-02 -2.000000e-02 -5.103209e-01
      endloop
   endfacet
   facet normal -5.735755e-01 0.000000e+00 -8.191527e-01
      outer loop
         vertex -1.000000e-02 2.000000e-02 -5.123205e-01
         vertex -1.285576e-02 -2.000000e-02 -5.103209e-01
         vertex -1.285576e-02 2.000000e-02 -5.103209e-01
      endloop
   endfacet
   facet normal -7.071057e-01 0.000000e+00 -7.071078e-01
      outer loop
         vertex -1.285576e-02 2.000000e-02 -5.103209e-01
         vertex -1.285576e-02 -2.000000e-02 -5.103209e-01
         vertex -1.532089e-02 -2.000000e-02 -5.078557e-01
      endloop
   endfacet
   facet normal -7.071057e-01 0.000000e+00 -7.071078e-01
      outer loop
         vertex -1.285576e-02 2.000000e-02 -5.103209e-01
         vertex -1.532089e-02 -2.000000e-02 -5.078557e-01
         vertex -1.532089e-02 2.000000e-02 -5.078557e-01
      endloop
   endfacet
   facet normal -8.191492e-01 0.000000e+00 -5.735805e-01
      outer loop
         vertex -1.532089e-02 2.000000e-02 -5.078557e-01
         vertex -1.532089e-02 -2.000000e-02 -5.078557e-01
         vertex -1.732051e-02 -2.000000e-02 -5.050000e-01
      endloop
   endfacet
   facet normal -8.191492e-01 0.000000e+00 -5.735805e-01
      outer loop
         vertex -1.532089e-02 2.000000e-02 -5.078557e-01
         vertex -1.732051e-02 -2.000000e-02 -5.050000e-01
         vertex -1.732051e-02 2.000000e-02 -5.050000e-01
      endloop
   endfacet
   facet normal -9.063100e-01 0.000000e+00 -4.226134e-01
      outer loop
         vertex -1.732051e-02 2.000000e-02 -5.050000e-01
         vertex -1.732051e-02 -2.000000e-02 -5.050000e-01
         vertex -1.879385e-02 -2.000000e-02 -5.018404e-01
      endloop
   endfacet
   facet normal -9.063100e-01 0.000000e+00 -4.226134e-01
      outer loop
         vertex -1.732051e-02 2.000000e-02 -5.050000e-01
         vertex -1.879385e-02 -2.000000e-02 -5.018404e-01
         vertex -1.879385e-02 2.000000e-02 -5.018404e-01
      endloop
   endfacet
   facet normal -9.659255e-01 0.000000e+00 -2.588201e-01
      outer loop
         vertex -1.879385e-02 2.000000e-02 -5.018404e-01
         vertex -1.879385e-02 -2.000000e-02 -5.018404e-01
         vertex -1.969616e-02 -2.000000e-02 -4.984730e-01
      endloop
   endfacet
   facet normal -9.659255e-01 0.000000e+00 -2.588201e-01
      outer loop
         vertex -1.879385e-02 2.000000e-02 -5.018404e-01
         vertex -1.969616e-02 -2.000000e-02 -4.984730e-01
         vertex -1.969616e-02 2.000000e-02 -4.984730e-01
      endloop
   endfacet
   facet normal -9.961948e-01 0.000000e+00 -8.715444e-02
      outer loop
         vertex -1.969616e-02 2.000000e-02 -4.984730e-01
         vertex -1.969616e-02 -2.000000e-02 -4.984730e-01
         vertex -2.000000e-02 -2.000000e-02 -4.950000e-01
      endloop
   endfacet
   facet normal -9.961948e-01 0.000000e+00 -8.715444e-02
      outer loop
         vertex -1.969616e-02 2.000000e-02 -4.984730e-01
         vertex -2.000000e-02 -2.000000e-02 -4.950000e-01
         vertex -2.000000e-02 2.000000e-02 -4.950000e-01
      endloop
   endfacet
   facet normal -1.000000e+00 0.000000e+00 6.251464e-17
      outer loop
         vertex -2.000000e-02 -2.000000e-02 4.950000e-01
         vertex -2.000000e-02 2.000000e-02 4.950000e-01
         vertex -2.000000e-02 -2.000000e-02 -4.950000e-01
      endloop
   endfacet
   facet normal -1.000000e+00 0.000000e+00 6.251464e-17
      outer loop
         vertex -2.000000e-02 -2.000000e-02 -4.950000e-01
         vertex -2.000000e-02 2.000000e-02 4.950000e-01
         vertex -2.000000e-02 2.000000e-02 -4.950000e-01
      endloop
   endfacet
   facet normal -9.961948e-01 0.000000e+00 8.715481e-02
      outer loop
         vertex -2.000000e-02 2.000000e-02 4.950000e-01
         vertex -2.000000e-02 -2.000000e-02 4.950000e-01
         vertex -1.969616e-02 -2.000000e-02 4.984730e-01
      endloop
   endfacet
   facet normal -9.961948e-01 0.000000e+00 8.715481e-02
      outer loop
         vertex -2.000000e-02 2.000000e-02 4.950000e-01
         vertex -1.969616e-02 -2.000000e-02 4.984730e-01
         vertex -1.969616e-02 2.000000e-02 4.984730e-01
      endloop
   endfacet
   facet normal -9.659258e-01 0.000000e+00 2.588191e-01
      outer loop
         vertex -1.969616e-02 2.000000e-02 4.984730e-01
         vertex -1.969616e-02 -2.000000e-02 4.984730e-01
         vertex -1.879385e-02 -2.000000e-02 5.018404e-01
      endloop
   endfacet
   facet normal -9.659258e-01 0.000000e+00 2.588191e-01
      outer loop
         vertex -1.969616e-02 2.000000e-02 4.984730e-01
         vertex -1.879385e-02 -2.000000e-02 5.018404e-01
         vertex -1.879385e-02 2.000000e-02 5.018404e-01
      endloop
   endfacet
   facet normal -9.063077e-01 0.000000e+00 4.226183e-01
      outer loop
         vertex -1.879385e-02 2.000000e-02 5.018404e-01
         vertex -1.879385e-02 -2.000000e-02 5.018404e-01
         vertex -1.732051e-02 -2.000000e-02 5.050000e-01
      endloop
   endfacet
   facet normal -9.063077e-01 0.000000e+00 4.226183e-01
      outer loop
         vertex -1.879385e-02 2.000000e-02 5.018404e-01
         vertex -1.732051e-02 -2.000000e-02 5.050000e-01
         vertex -1.732051e-02 2.000000e-02 5.050000e-01
      endloop
   endfacet
   facet normal -8.191520e-01 0.000000e+00 5.735765e-01
      outer loop
         vertex -1.732051e-02 2.000000e-02 5.050000e-01
         vertex -1.732051e-02 -2.000000e-02 5.050000e-01
         vertex -1.532089e-02 -2.000000e-02 5.078557e-01
      endloop
   endfacet
   facet normal -8.191520e-01 0.000000e+00 5.735765e-01
      outer loop
         vertex -1.732051e-02 2.000000e-02 5.050000e-01
         vertex -1.532089e-02 -2.000000e-02 5.078557e-01
         vertex -1.532089e-02 2.000000e-02 5.078557e-01
      endloop
   endfacet
   facet normal -7.071078e-01 0.000000e+00 7.071057e-01
      outer loop
         vertex -1.532089e-02 2.000000e-02 5.078557e-01
         vertex -1.532089e-02 -2.000000e-02 5.078557e-01
         vertex -1.285576e-02 -2.000000e-02 5.103209e-01
      endloop
   endfacet
   facet normal -7.071078e-01 0.000000e+00 7.071057e-01
      outer loop
         vertex -1.532089e-02 2.000000e-02 5.078557e-01
         vertex -1.285576e-02 -2.000000e-02 5.103209e-01
         vertex -1.285576e-02 2.000000e-02 5.103209e-01
      endloop
   endfacet
   facet normal -5.735755e-01 0.000000e+00 8.191527e-01
      outer loop
         vertex -1.285576e-02 2.000000e-02 5.103209e-01
         vertex -1.285576e-02 -2.000000e-02 5.103209e-01
         vertex -1.000000e-02 -2.000000e-02 5.123205e-01
      endloop
   endfacet
   facet normal -5.735755e-01 0.000000e+00 8.191527e-01
      outer loop
         vertex -1.285576e-02 2.000000e-02 5.103209e-01
         vertex -1.000000e-02 -2.000000e-02 5.123205e-01
         vertex -1.000000e-02 2.000000e-02 5.123205e-01
      endloop
   endfacet
   facet normal -4.226201e-01 0.000000e+00 9.063069e-01
      outer loop
         vertex -1.000000e-02 2.000000e-02 5.123205e-01
         vertex -1.000000e-02 -2.000000e-02 5.123205e-01
         vertex -6.840402e-03 -2.000000e-02 5.137939e-01
      endloop
   endfacet
   facet normal -4.226201e-01 0.000000e+00 9.063069e-01
      outer loop
         vertex -1.000000e-02 2.000000e-02 5.123205e-01
         vertex -6.840402e-03 -2.000000e-02 5.137939e-01
         vertex -6.840402e-03 2.000000e-02 5.137939e-01
      endloop
   endfacet
   facet normal -2.588171e-01 0.000000e+00 9.659264e-01
      outer loop
         vertex -6.840402e-03 2.000000e-02 5.137939e-01
         vertex -6.840402e-03 -2.000000e-02 5.137939e-01
         vertex -3.472963e-03 -2.000000e-02 5.146962e-01
      endloop
   endfacet
   facet normal -2.588171e-01 0.000000e+00 9.659264e-01
      outer loop
         vertex -6.840402e-03 2.000000e-02 5.137939e-01
         vertex -3.472963e-03 -2.000000e-02 5.146962e-01
         vertex -3.472963e-03 2.000000e-02 5.146962e-01
      endloop
   endfacet
   facet normal -8.715711e-02 0.000000e+00 9.961946e-01
      outer loop
         vertex -3.472963e-03 2.000000e-02 5.146962e-01
         vertex -3.472963e-03 -2.000000e-02 5.146962e-01
         vertex -1.722819e-09 -2.000000e-02 5.150000e-01
      endloop
   endfacet
   facet normal -8.715711e-02 0.000000e+00 9.961946e-01
      outer loop
         vertex -3.472963e-03 2.000000e-02 5.146962e-01
         vertex -1.722819e-09 -2.000000e-02 5.150000e-01
         vertex -1.722819e-09 2.000000e-02 5.150000e-01
      endloop
   endfacet
   facet normal 8.715702e-02 0.000000e+00 9.961946e-01
      outer loop
         vertex -1.722819e-09 2.000000e-02 5.150000e-01
         vertex -1.722819e-09 -2.000000e-02 5.150000e-01
         vertex 3.472963e-03 -2.000000e-02 5.146962e-01
      endloop
   endfacet
   facet normal 8.715702e-02 -0.000000e+00 9.961946e-01
      outer loop
         vertex -1.722819e-09 2.000000e-02 5.150000e-01
         vertex 3.472963e-03 -2.000000e-02 5.146962e-01
         vertex 3.472963e-03 2.000000e-02 5.146962e-01
      endloop
   endfacet
   facet normal 2.588171e-01 0.000000e+00 9.659264e-01
      outer loop
         vertex 3.472963e-03 2.000000e-02 5.146962e-01
         vertex 3.472963e-03 -2.000000e-02 5.146962e-01
         vertex 6.840402e-03 -2.000000e-02 5.137939e-01
      endloop
   endfacet
   facet normal 2.588171e-01 -0.000000e+00 9.659264e-01
      outer loop
         vertex 3.472963e-03 2.000000e-02 5.146962e-01
         vertex 6.840402e-03 -2.000000e-02 5.137939e-01
         vertex 6.840402e-03 2.000000e-02 5.137939e-01
      endloop
   endfacet
   facet normal 4.226201e-01 0.000000e+00 9.063069e-01
      outer loop
         vertex 6.840402e-03 2.000000e-02 5.137939e-01
         vertex 6.840402e-03 -2.000000e-02 5.137939e-01
         vertex 1.000000e-02 -2.000000e-02 5.123205e-01
      endloop
   endfacet
   facet normal 4.226201e-01 -0.000000e+00 9.063069e-01
      outer loop
         vertex 6.840402e-03 2.000000e-02 5.137939e-01
         vertex 1.000000e-02 -2.000000e-02 5.123205e-01
         vertex 1.000000e-02 2.000000e-02 5.123205e-01
      endloop
   endfacet
   facet normal 5.735760e-01 0.000000e+00 8.191523e-01
      outer loop
         vertex 1.000000e-02 2.000000e-02 5.123205e-01
         vertex 1.000000e-02 -2.000000e-02 5.123205e-01
         vertex 1.285575e-02 -2.000000e-02 5.103209e-01
      endloop
   endfacet
   facet normal 5.735760e-01 -0.000000e+00 8.191523e-01
      outer loop
         vertex 1.000000e-02 2.000000e-02 5.123205e-01
         vertex 1.285575e-02 -2.000000e-02 5.103209e-01
         vertex 1.285575e-02 2.000000e-02 5.103209e-01
      endloop
   endfacet
   facet normal 7.071078e-01 0.000000e+00 7.071057e-01
      outer loop
         vertex 1.285575e-02 2.000000e-02 5.103209e-01
         vertex 1.285575e-02 -2.000000e-02 5.103209e-01
         vertex 1.532089e-02 -2.000000e-02 5.078557e-01
      endloop
   endfacet
   facet normal 7.071078e-01 -0.000000e+00 7.071057e-01
      outer loop
         vertex 1.285575e-02 2.000000e-02 5.103209e-01
         vertex 1.532089e-02 -2.000000e-02 5.078557e-01
         vertex 1.532089e-02 2.000000e-02 5.078557e-01
      endloop
   endfacet
   facet normal 8.191515e-01 0.000000e+00 5.735772e-01
      outer loop
         vertex 1.532089e-02 2.000000e-02 5.078557e-01
         vertex 1.532089e-02 -2.000000e-02 5.078557e-01
         vertex 1.732051e-02 -2.000000e-02 5.050000e-01
      endloop
   endfacet
   facet normal 8.191515e-01 -0.000000e+00 5.735772e-01
      outer loop
         vertex 1.532089e-02 2.000000e-02 5.078557e-01
         vertex 1.732051e-02 -2.000000e-02 5.050000e-01
         vertex 1.732051e-02 2.000000e-02 5.050000e-01
      endloop
   endfacet
   facet normal 9.063077e-01 0.000000e+00 4.226183e-01
      outer loop
         vertex 1.732051e-02 2.000000e-02 5.050000e-01
         vertex 1.732051e-02 -2.000000e-02 5.050000e-01
         vertex 1.879385e-02 -2.000000e-02 5.018404e-01
      endloop
   endfacet
   facet normal 9.063077e-01 -0.000000e+00 4.226183e-01
      outer loop
         vertex 1.732051e-02 2.000000e-02 5.050000e-01
         vertex 1.879385e-02 -2.000000e-02 5.018404e-01
         vertex 1.879385e-02 2.000000e-02 5.018404e-01
      endloop
   endfacet
   facet normal 9.659258e-01 0.000000e+00 2.588191e-01
      outer loop
         vertex 1.879385e-02 2.000000e-02 5.018404e-01
         vertex 1.879385e-02 -2.000000e-02 5.018404e-01
         vertex 1.969616e-02 -2.000000e-02 4.984730e-01
      endloop
   endfacet
   facet normal 9.659258e-01 -0.000000e+00 2.588191e-01
      outer loop
         vertex 1.879385e-02 2.000000e-02 5.018404e-01
         vertex 1.969616e-02 -2.000000e-02 4.984730e-01
         vertex 1.969616e-02 2.000000e-02 4.984730e-01
      endloop
   endfacet
   facet normal 9.961947e-01 0.000000e+00 8.715587e-02
      outer loop
         vertex 1.969616e-02 2.000000e-02 4.984730e-01
         vertex 1.969616e-02 -2.000000e-02 4.984730e-01
         vertex 2.000000e-02 -2.000000e-02 4.950000e-01
      endloop
   endfacet
   facet normal 9.961947e-01 -0.000000e+00 8.715587e-02
      outer loop
         vertex 1.969616e-02 2.000000e-02 4.984730e-01
         vertex 2.000000e-02 -2.000000e-02 4.950000e-01
         vertex 2.000000e-02 2.000000e-02 4.950000e-01
      endloop
   endfacet
   facet normal 0.000000e+00 1.000000e+00 0.000000e+00
      outer loop
         vertex -1.722819e-09 2.000000e-02 -5.150000e-01
         vertex -3.472963e-03 2.000000e-02 -5.146961e-01
         vertex 2.000000e-02 2.000000e-02 -4.950000e-01
      endloop
   endfacet
   facet normal 0.000000e+00 1.000000e+00 0.000000e+00
      outer loop
         vertex -1.969616e-02 2.000000e-02 4.984730e-01
         vertex -1.879385e-02 2.000000e-02 5.018404e-01
         vertex 2.000000e-02 2.000000e-02 4.950000e-01
      endloop
   endfacet
   facet normal 0.000000e+00 1.000000e+00 0.000000e+00
      outer loop
         vertex 1.879385e-02 2.000000e-02 -5.018404e-01
         vertex 1.732051e-02 2.000000e-02 -5.050000e-01
         vertex 1.532089e-02 2.000000e-02 -5.078557e-01
      endloop
   endfacet
   facet normal 0.000000e+00 1.000000e+00 0.000000e+00
      outer loop
         vertex 2.000000e-02 2.000000e-02 -4.950000e-01
         vertex 1.285575e-02 2.000000e-02 -5.103209e-01
         vertex 1.000000e-02 2.000000e-02 -5.123205e-01
      endloop
   endfacet
   facet normal 0.000000e+00 1.000000e+00 0.000000e+00
      outer loop
         vertex -3.472963e-03 2.000000e-02 -5.146961e-01
         vertex -6.840402e-03 2.000000e-02 -5.137939e-01
         vertex 2.000000e-02 2.000000e-02 -4.950000e-01
      endloop
   endfacet
   facet normal 0.000000e+00 1.000000e+00 0.000000e+00
      outer loop
         vertex 2.000000e-02 2.000000e-02 -4.950000e-01
         vertex -6.840402e-03 2.000000e-02 -5.137939e-01
         vertex -1.000000e-02 2.000000e-02 -5.123205e-01
      endloop
   endfacet
   facet normal 0.000000e+00 1.000000e+00 0.000000e+00
      outer loop
         vertex 2.000000e-02 2.000000e-02 -4.950000e-01
         vertex -1.000000e-02 2.000000e-02 -5.123205e-01
         vertex -1.285576e-02 2.000000e-02 -5.103209e-01
      endloop
   endfacet
   facet normal 0.000000e+00 1.000000e+00 0.000000e+00
      outer loop
         vertex -1.285576e-02 2.000000e-02 -5.103209e-01
         vertex -1.532089e-02 2.000000e-02 -5.078557e-01
         vertex 2.000000e-02 2.000000e-02 -4.950000e-01
      endloop
   endfacet
   facet normal 0.000000e+00 1.000000e+00 0.000000e+00
      outer loop
         vertex 2.000000e-02 2.000000e-02 -4.950000e-01
         vertex -1.532089e-02 2.000000e-02 -5.078557e-01
         vertex -1.732051e-02 2.000000e-02 -5.050000e-01
      endloop
   endfacet
   facet normal 0.000000e+00 1.000000e+00 0.000000e+00
      outer loop
         vertex 2.000000e-02 2.000000e-02 -4.950000e-01
         vertex -1.732051e-02 2.000000e-02 -5.050000e-01
         vertex -1.879385e-02 2.000000e-02 -5.018404e-01
      endloop
   endfacet
   facet normal 0.000000e+00 1.000000e+00 0.000000e+00
      outer loop
         vertex 1.000000e-02 2.000000e-02 -5.123205e-01
         vertex 6.840402e-03 2.000000e-02 -5.137939e-01
         vertex 2.000000e-02 2.000000e-02 -4.950000e-01
      endloop
   endfacet
   facet normal 0.000000e+00 1.000000e+00 0.000000e+00
      outer loop
         vertex 2.000000e-02 2.000000e-02 -4.950000e-01
         vertex 6.840402e-03 2.000000e-02 -5.137939e-01
         vertex 3.472963e-03 2.000000e-02 -5.146961e-01
      endloop
   endfacet
   facet normal 0.000000e+00 1.000000e+00 0.000000e+00
      outer loop
         vertex 2.000000e-02 2.000000e-02 -4.950000e-01
         vertex 3.472963e-03 2.000000e-02 -5.146961e-01
         vertex -1.722819e-09 2.000000e-02 -5.150000e-01
      endloop
   endfacet
   facet normal 0.000000e+00 1.000000e+00 0.000000e+00
      outer loop
         vertex -1.879385e-02 2.000000e-02 -5.018404e-01
         vertex -1.969616e-02 2.000000e-02 -4.984730e-01
         vertex 2.000000e-02 2.000000e-02 -4.950000e-01
      endloop
   endfacet
   facet normal 0.000000e+00 1.000000e+00 0.000000e+00
      outer loop
         vertex 2.000000e-02 2.000000e-02 -4.950000e-01
         vertex -1.969616e-02 2.000000e-02 -4.984730e-01
         vertex -2.000000e-02 2.000000e-02 -4.950000e-01
      endloop
   endfacet
   facet normal 0.000000e+00 1.000000e+00 0.000000e+00
      outer loop
         vertex 2.000000e-02 2.000000e-02 -4.950000e-01
         vertex -2.000000e-02 2.000000e-02 -4.950000e-01
         vertex 2.000000e-02 2.000000e-02 4.950000e-01
      endloop
   endfacet
   facet normal 0.000000e+00 1.000000e+00 0.000000e+00
      outer loop
         vertex 2.000000e-02 2.000000e-02 4.950000e-01
         vertex -2.000000e-02 2.000000e-02 -4.950000e-01
         vertex -2.000000e-02 2.000000e-02 4.950000e-01
      endloop
   endfacet
   facet normal 0.000000e+00 1.000000e+00 0.000000e+00
      outer loop
         vertex 2.000000e-02 2.000000e-02 4.950000e-01
         vertex -2.000000e-02 2.000000e-02 4.950000e-01
         vertex -1.969616e-02 2.000000e-02 4.984730e-01
      endloop
   endfacet
   facet normal 0.000000e+00 1.000000e+00 0.000000e+00
      outer loop
         vertex -3.472963e-03 2.000000e-02 5.146962e-01
         vertex -1.722819e-09 2.000000e-02 5.150000e-01
         vertex 2.000000e-02 2.000000e-02 4.950000e-01
      endloop
   endfacet
   facet normal 0.000000e+00 1.000000e+00 0.000000e+00
      outer loop
         vertex 2.000000e-02 2.000000e-02 4.950000e-01
         vertex -1.722819e-09 2.000000e-02 5.150000e-01
         vertex 3.472963e-03 2.000000e-02 5.146962e-01
      endloop
   endfacet
   facet normal 0.000000e+00 1.000000e+00 0.000000e+00
      outer loop
         vertex 2.000000e-02 2.000000e-02 4.950000e-01
         vertex 3.472963e-03 2.000000e-02 5.146962e-01
         vertex 6.840402e-03 2.000000e-02 5.137939e-01
      endloop
   endfacet
   facet normal 0.000000e+00 1.000000e+00 0.000000e+00
      outer loop
         vertex 1.285575e-02 2.000000e-02 -5.103209e-01
         vertex 2.000000e-02 2.000000e-02 -4.950000e-01
         vertex 1.532089e-02 2.000000e-02 -5.078557e-01
      endloop
   endfacet
   facet normal 0.000000e+00 1.000000e+00 0.000000e+00
      outer loop
         vertex 1.532089e-02 2.000000e-02 -5.078557e-01
         vertex 2.000000e-02 2.000000e-02 -4.950000e-01
         vertex 1.969616e-02 2.000000e-02 -4.984730e-01
      endloop
   endfacet
   facet normal 0.000000e+00 1.000000e+00 0.000000e+00
      outer loop
         vertex 1.532089e-02 2.000000e-02 -5.078557e-01
         vertex 1.969616e-02 2.000000e-02 -4.984730e-01
         vertex 1.879385e-02 2.000000e-02 -5.018404e-01
      endloop
   endfacet
   facet normal 0.000000e+00 1.000000e+00 0.000000e+00
      outer loop
         vertex -1.879385e-02 2.000000e-02 5.018404e-01
         vertex -1.732051e-02 2.000000e-02 5.050000e-01
         vertex 2.000000e-02 2.000000e-02 4.950000e-01
      endloop
   endfacet
   facet normal 0.000000e+00 1.000000e+00 0.000000e+00
      outer loop
         vertex 2.000000e-02 2.000000e-02 4.950000e-01
         vertex -1.732051e-02 2.000000e-02 5.050000e-01
         vertex -1.532089e-02 2.000000e-02 5.078557e-01
      endloop
   endfacet
   facet normal 0.000000e+00 1.000000e+00 0.000000e+00
      outer loop
         vertex 2.000000e-02 2.000000e-02 4.950000e-01
         vertex -1.532089e-02 2.000000e-02 5.078557e-01
         vertex -1.285576e-02 2.000000e-02 5.103209e-01
      endloop
   endfacet
   facet normal 0.000000e+00 1.000000e+00 0.000000e+00
      outer loop
         vertex -1.285576e-02 2.000000e-02 5.103209e-01
         vertex -1.000000e-02 2.000000e-02 5.123205e-01
         vertex 2.000000e-02 2.000000e-02 4.950000e-01
      endloop
   endfacet
   facet normal 0.000000e+00 1.000000e+00 0.000000e+00
      outer loop
         vertex 2.000000e-02 2.000000e-02 4.950000e-01
         vertex -1.000000e-02 2.000000e-02 5.123205e-01
         vertex -6.840402e-03 2.000000e-02 5.137939e-01
      endloop
   endfacet
   facet normal 0.000000e+00 1.000000e+00 0.000000e+00
      outer loop
         vertex 2.000000e-02 2.000000e-02 4.950000e-01
         vertex -6.840402e-03 2.000000e-02 5.137939e-01
         vertex -3.472963e-03 2.000000e-02 5.146962e-01
      endloop
   endfacet
   facet normal 0.000000e+00 1.000000e+00 0.000000e+00
      outer loop
         vertex 6.840402e-03 2.000000e-02 5.137939e-01
         vertex 1.000000e-02 2.000000e-02 5.123205e-01
         vertex 2.000000e-02 2.000000e-02 4.950000e-01
      endloop
   endfacet
   facet normal 0.000000e+00 1.000000e+00 0.000000e+00
      outer loop
         vertex 2.000000e-02 2.000000e-02 4.950000e-01
         vertex 1.000000e-02 2.000000e-02 5.123205e-01
         vertex 1.285575e-02 2.000000e-02 5.103209e-01
      endloop
   endfacet
   facet normal 0.000000e+00 1.000000e+00 0.000000e+00
      outer loop
         vertex 2.000000e-02 2.000000e-02 4.950000e-01
         vertex 1.285575e-02 2.000000e-02 5.103209e-01
         vertex 1.532089e-02 2.000000e-02 5.078557e-01
      endloop
   endfacet
   facet normal 0.000000e+00 1.000000e+00 0.000000e+00
      outer loop
         vertex 1.532089e-02 2.000000e-02 5.078557e-01
         vertex 1.732051e-02 2.000000e-02 5.050000e-01
         vertex 2.000000e-02 2.000000e-02 4.950000e-01
      endloop
   endfacet
   facet normal 0.000000e+00 1.000000e+00 0.000000e+00
      outer loop
         vertex 2.000000e-02 2.000000e-02 4.950000e-01
         vertex 1.732051e-02 2.000000e-02 5.050000e-01
         vertex 1.879385e-02 2.000000e-02 5.018404e-01
      endloop
   endfacet
   facet normal 0.000000e+00 1.000000e+00 0.000000e+00
      outer loop
         vertex 2.000000e-02 2.000000e-02 4.950000e-01
         vertex 1.879385e-02 2.000000e-02 5.018404e-01
         vertex 1.969616e-02 2.000000e-02 4.984730e-01
      endloop
   endfacet
   facet normal 0.000000e+00 -1.000000e+00 0.000000e+00
      outer loop
         vertex 3.472963e-03 -2.000000e-02 -5.146961e-01
         vertex 2.000000e-02 -2.000000e-02 -4.950000e-01
         vertex -1.722819e-09 -2.000000e-02 -5.150000e-01
      endloop
   endfacet
   facet normal 0.000000e+00 -1.000000e+00 0.000000e+00
      outer loop
         vertex -1.722819e-09 -2.000000e-02 -5.150000e-01
         vertex 2.000000e-02 -2.000000e-02 -4.950000e-01
         vertex -3.472963e-03 -2.000000e-02 -5.146961e-01
      endloop
   endfacet
   facet normal 0.000000e+00 -1.000000e+00 0.000000e+00
      outer loop
         vertex -1.969616e-02 -2.000000e-02 -4.984730e-01
         vertex -1.879385e-02 -2.000000e-02 -5.018404e-01
         vertex 2.000000e-02 -2.000000e-02 -4.950000e-01
      endloop
   endfacet
   facet normal 0.000000e+00 -1.000000e+00 0.000000e+00
      outer loop
         vertex -1.879385e-02 -2.000000e-02 -5.018404e-01
         vertex -1.732051e-02 -2.000000e-02 -5.050000e-01
         vertex 2.000000e-02 -2.000000e-02 -4.950000e-01
      endloop
   endfacet
   facet normal 0.000000e+00 -1.000000e+00 0.000000e+00
      outer loop
         vertex 2.000000e-02 -2.000000e-02 -4.950000e-01
         vertex -1.732051e-02 -2.000000e-02 -5.050000e-01
         vertex -1.532089e-02 -2.000000e-02 -5.078557e-01
      endloop
   endfacet
   facet normal 0.000000e+00 -1.000000e+00 0.000000e+00
      outer loop
         vertex 2.000000e-02 -2.000000e-02 -4.950000e-01
         vertex -1.532089e-02 -2.000000e-02 -5.078557e-01
         vertex -1.285576e-02 -2.000000e-02 -5.103209e-01
      endloop
   endfacet
   facet normal 0.000000e+00 -1.000000e+00 0.000000e+00
      outer loop
         vertex -1.285576e-02 -2.000000e-02 -5.103209e-01
         vertex -1.000000e-02 -2.000000e-02 -5.123205e-01
         vertex 2.000000e-02 -2.000000e-02 -4.950000e-01
      endloop
   endfacet
   facet normal 0.000000e+00 -1.000000e+00 0.000000e+00
      outer loop
         vertex 2.000000e-02 -2.000000e-02 -4.950000e-01
         vertex -1.000000e-02 -2.000000e-02 -5.123205e-01
         vertex -6.840402e-03 -2.000000e-02 -5.137939e-01
      endloop
   endfacet
   facet normal 0.000000e+00 -1.000000e+00 0.000000e+00
      outer loop
         vertex 2.000000e-02 -2.000000e-02 -4.950000e-01
         vertex -6.840402e-03 -2.000000e-02 -5.137939e-01
         vertex -3.472963e-03 -2.000000e-02 -5.146961e-01
      endloop
   endfacet
   facet normal 0.000000e+00 -1.000000e+00 0.000000e+00
      outer loop
         vertex 2.000000e-02 -2.000000e-02 -4.950000e-01
         vertex 1.285575e-02 -2.000000e-02 -5.103209e-01
         vertex 1.532089e-02 -2.000000e-02 -5.078557e-01
      endloop
   endfacet
   facet normal 0.000000e+00 -1.000000e+00 0.000000e+00
      outer loop
         vertex 3.472963e-03 -2.000000e-02 5.146962e-01
         vertex -1.722819e-09 -2.000000e-02 5.150000e-01
         vertex 2.000000e-02 -2.000000e-02 4.950000e-01
      endloop
   endfacet
   facet normal 0.000000e+00 -1.000000e+00 0.000000e+00
      outer loop
         vertex 2.000000e-02 -2.000000e-02 4.950000e-01
         vertex -1.722819e-09 -2.000000e-02 5.150000e-01
         vertex -3.472963e-03 -2.000000e-02 5.146962e-01
      endloop
   endfacet
   facet normal 0.000000e+00 -1.000000e+00 0.000000e+00
      outer loop
         vertex -1.879385e-02 -2.000000e-02 5.018404e-01
         vertex -1.969616e-02 -2.000000e-02 4.984730e-01
         vertex 2.000000e-02 -2.000000e-02 4.950000e-01
      endloop
   endfacet
   facet normal 0.000000e+00 -1.000000e+00 0.000000e+00
      outer loop
         vertex 2.000000e-02 -2.000000e-02 4.950000e-01
         vertex -1.969616e-02 -2.000000e-02 4.984730e-01
         vertex -2.000000e-02 -2.000000e-02 4.950000e-01
      endloop
   endfacet
   facet normal 0.000000e+00 -1.000000e+00 0.000000e+00
      outer loop
         vertex 2.000000e-02 -2.000000e-02 4.950000e-01
         vertex -2.000000e-02 -2.000000e-02 4.950000e-01
         vertex 2.000000e-02 -2.000000e-02 -4.950000e-01
      endloop
   endfacet
   facet normal 0.000000e+00 -1.000000e+00 0.000000e+00
      outer loop
         vertex 2.000000e-02 -2.000000e-02 -4.950000e-01
         vertex -2.000000e-02 -2.000000e-02 4.950000e-01
         vertex -2.000000e-02 -2.000000e-02 -4.950000e-01
      endloop
   endfacet
   facet normal 0.000000e+00 -1.000000e+00 0.000000e+00
      outer loop
         vertex 2.000000e-02 -2.000000e-02 -4.950000e-01
         vertex -2.000000e-02 -2.000000e-02 -4.950000e-01
         vertex -1.969616e-02 -2.000000e-02 -4.984730e-01
      endloop
   endfacet
   facet normal 0.000000e+00 -1.000000e+00 0.000000e+00
      outer loop
         vertex 3.472963e-03 -2.000000e-02 -5.146961e-01
         vertex 6.840402e-03 -2.000000e-02 -5.137939e-01
         vertex 2.000000e-02 -2.000000e-02 -4.950000e-01
      endloop
   endfacet
   facet normal 0.000000e+00 -1.000000e+00 0.000000e+00
      outer loop
         vertex 2.000000e-02 -2.000000e-02 -4.950000e-01
         vertex 6.840402e-03 -2.000000e-02 -5.137939e-01
         vertex 1.000000e-02 -2.000000e-02 -5.123205e-01
      endloop
   endfacet
   facet normal 0.000000e+00 -1.000000e+00 0.000000e+00
      outer loop
         vertex 2.000000e-02 -2.000000e-02 -4.950000e-01
         vertex 1.000000e-02 -2.000000e-02 -5.123205e-01
         vertex 1.285575e-02 -2.000000e-02 -5.103209e-01
      endloop
   endfacet
   facet normal 0.000000e+00 -1.000000e+00 0.000000e+00
      outer loop
         vertex 1.532089e-02 -2.000000e-02 -5.078557e-01
         vertex 1.732051e-02 -2.000000e-02 -5.050000e-01
         vertex 2.000000e-02 -2.000000e-02 -4.950000e-01
      endloop
   endfacet
   facet normal 0.000000e+00 -1.000000e+00 0.000000e+00
      outer loop
         vertex 2.000000e-02 -2.000000e-02 -4.950000e-01
         vertex 1.732051e-02 -2.000000e-02 -5.050000e-01
         vertex 1.879385e-02 -2.000000e-02 -5.018404e-01
      endloop
   endfacet
   facet normal 0.000000e+00 -1.000000e+00 0.000000e+00
      outer loop
         vertex 2.000000e-02 -2.000000e-02 -4.950000e-01
         vertex 1.879385e-02 -2.000000e-02 -5.018404e-01
         vertex 1.969616e-02 -2.000000e-02 -4.984730e-01
      endloop
   endfacet
   facet normal 0.000000e+00 -1.000000e+00 0.000000e+00
      outer loop
         vertex 2.000000e-02 -2.000000e-02 4.950000e-01
         vertex 1.969616e-02 -2.000000e-02 4.984730e-01
         vertex 1.879385e-02 -2.000000e-02 5.018404e-01
      endloop
   endfacet
   facet normal 0.000000e+00 -1.000000e+00 0.000000e+00
      outer loop
         vertex -3.472963e-03 -2.000000e-02 5.146962e-01
         vertex -6.840402e-03 -2.000000e-02 5.137939e-01
         vertex 2.000000e-02 -2.000000e-02 4.950000e-01
      endloop
   endfacet
   facet normal 0.000000e+00 -1.000000e+00 0.000000e+00
      outer loop
         vertex 2.000000e-02 -2.000000e-02 4.950000e-01
         vertex -6.840402e-03 -2.000000e-02 5.137939e-01
         vertex -1.000000e-02 -2.000000e-02 5.123205e-01
      endloop
   endfacet
   facet normal 0.000000e+00 -1.000000e+00 0.000000e+00
      outer loop
         vertex 2.000000e-02 -2.000000e-02 4.950000e-01
         vertex -1.000000e-02 -2.000000e-02 5.123205e-01
         vertex -1.285576e-02 -2.000000e-02 5.103209e-01
      endloop
   endfacet
   facet normal 0.000000e+00 -1.000000e+00 0.000000e+00
      outer loop
         vertex -1.285576e-02 -2.000000e-02 5.103209e-01
         vertex -1.532089e-02 -2.000000e-02 5.078557e-01
         vertex 2.000000e-02 -2.000000e-02 4.950000e-01
      endloop
   endfacet
   facet normal 0.000000e+00 -1.000000e+00 0.000000e+00
      outer loop
         vertex 2.000000e-02 -2.000000e-02 4.950000e-01
         vertex -1.532089e-02 -2.000000e-02 5.078557e-01
         vertex -1.732051e-02 -2.000000e-02 5.050000e-01
      endloop
   endfacet
   facet normal 0.000000e+00 -1.000000e+00 0.000000e+00
      outer loop
         vertex 2.000000e-02 -2.000000e-02 4.950000e-01
         vertex -1.732051e-02 -2.000000e-02 5.050000e-01
         vertex -1.879385e-02 -2.000000e-02 5.018404e-01
      endloop
   endfacet
   facet normal 0.000000e+00 -1.000000e+00 0.000000e+00
      outer loop
         vertex 1.879385e-02 -2.000000e-02 5.018404e-01
         vertex 1.732051e-02 -2.000000e-02 5.050000e-01
         vertex 2.000000e-02 -2.000000e-02 4.950000e-01
      endloop
   endfacet
   facet normal 0.000000e+00 -1.000000e+00 0.000000e+00
      outer loop
         vertex 2.000000e-02 -2.000000e-02 4.950000e-01
         vertex 1.732051e-02 -2.000000e-02 5.050000e-01
         vertex 1.532089e-02 -2.000000e-02 5.078557e-01
      endloop
   endfacet
   facet normal 0.000000e+00 -1.000000e+00 0.000000e+00
      outer loop
         vertex 2.000000e-02 -2.000000e-02 4.950000e-01
         vertex 1.532089e-02 -2.000000e-02 5.078557e-01
         vertex 1.285575e-02 -2.000000e-02 5.103209e-01
      endloop
   endfacet
   facet normal 0.000000e+00 -1.000000e+00 0.000000e+00
      outer loop
         vertex 1.285575e-02 -2.000000e-02 5.103209e-01
         vertex 1.000000e-02 -2.000000e-02 5.123205e-01
         vertex 2.000000e-02 -2.000000e-02 4.950000e-01
      endloop
   endfacet
   facet normal 0.000000e+00 -1.000000e+00 0.000000e+00
      outer loop
         vertex 2.000000e-02 -2.000000e-02 4.950000e-01
         vertex 1.000000e-02 -2.000000e-02 5.123205e-01
         vertex 6.840402e-03 -2.000000e-02 5.137939e-01
      endloop
   endfacet
   facet normal 0.000000e+00 -1.000000e+00 0.000000e+00
      outer loop
         vertex 2.000000e-02 -2.000000e-02 4.950000e-01
         vertex 6.840402e-03 -2.000000e-02 5.137939e-01
         vertex 3.472963e-03 -2.000000e-02 5.146962e-01
      endloop
   endfacet
endsolid