# Blender v2.91.0 OBJ File: 'Bar3.blend'
# www.blender.org
mtllib Bar3.mtl
o Bar3
v 13.500000 -0.062167 1.142988
v 13.500000 -0.060000 1.130000
v 13.200000 -0.060000 1.130000
v 13.500000 -0.062167 1.117012
v 13.200000 -0.062412 1.116319
v 13.500000 -0.068434 1.105431
v 13.200000 -0.069358 1.104288
v 13.500000 -0.078122 1.096513
v 13.200000 -0.080000 1.095359
v 13.500000 -0.090181 1.091224
v 13.200000 -0.093054 1.090608
v 13.500000 -0.103303 1.090137
v 13.200000 -0.106946 1.090608
v 13.500000 -0.116068 1.093369
v 13.200000 -0.120000 1.095359
v 13.500000 -0.127091 1.100571
v 13.200000 -0.130642 1.104288
v 13.500000 -0.135179 1.110962
v 13.200000 -0.137588 1.116319
v 13.500000 -0.139454 1.123416
v 13.200000 -0.140000 1.130000
v 13.500000 -0.139454 1.136584
v 13.200000 -0.137588 1.143681
v 13.500000 -0.135179 1.149038
v 13.200000 -0.130642 1.155712
v 13.500000 -0.127091 1.159429
v 13.200000 -0.120000 1.164641
v 13.500000 -0.116068 1.166631
v 13.200000 -0.106946 1.169392
v 13.500000 -0.103303 1.169863
v 13.200000 -0.093054 1.169392
v 13.500000 -0.090181 1.168776
v 13.200000 -0.080000 1.164641
v 13.500000 -0.078122 1.163487
v 13.200000 -0.069358 1.155712
v 13.500000 -0.068434 1.154569
v 13.200000 -0.062412 1.143681
v 12.000000 -0.062167 1.117012
v 12.000000 -0.060000 1.130000
v 12.300000 -0.060000 1.130000
v 12.000000 -0.062167 1.142988
v 12.300000 -0.062412 1.143681
v 12.000000 -0.068434 1.154569
v 12.300000 -0.069358 1.155712
v 12.000000 -0.078122 1.163487
v 12.300000 -0.080000 1.164641
v 12.000000 -0.090181 1.168776
v 12.300000 -0.093054 1.169392
v 12.000000 -0.103303 1.169863
v 12.300000 -0.106946 1.169392
v 12.000000 -0.116068 1.166631
v 12.300000 -0.120000 1.164641
v 12.000000 -0.127091 1.159429
v 12.300000 -0.130642 1.155712
v 12.000000 -0.135179 1.149038
v 12.300000 -0.137588 1.143681
v 12.000000 -0.139454 1.136584
v 12.300000 -0.140000 1.130000
v 12.000000 -0.139454 1.123416
v 12.300000 -0.137588 1.116319
v 12.000000 -0.135179 1.110962
v 12.300000 -0.130642 1.104288
v 12.000000 -0.127091 1.100571
v 12.300000 -0.120000 1.095359
v 12.000000 -0.116068 1.093369
v 12.300000 -0.106946 1.090608
v 12.000000 -0.103303 1.090137
v 12.300000 -0.093054 1.090608
v 12.000000 -0.090181 1.091224
v 12.300000 -0.080000 1.095359
v 12.000000 -0.078122 1.096513
v 12.300000 -0.069358 1.104288
v 12.000000 -0.068434 1.105431
v 12.300000 -0.062412 1.116319
v 12.900000 -0.140000 1.130000
v 12.900000 -0.137588 1.116319
v 12.900000 -0.130642 1.104288
v 12.900000 -0.120000 1.095359
v 12.900000 -0.106946 1.090608
v 12.900000 -0.093054 1.090608
v 12.900000 -0.080000 1.095359
v 12.900000 -0.069358 1.104288
v 12.900000 -0.062412 1.116319
v 12.900000 -0.060000 1.130000
v 12.900000 -0.062412 1.143681
v 12.900000 -0.069358 1.155712
v 12.900000 -0.080000 1.164641
v 12.900000 -0.093054 1.169392
v 12.900000 -0.106946 1.169392
v 12.900000 -0.120000 1.164641
v 12.900000 -0.130642 1.155712
v 12.900000 -0.137588 1.143681
v 12.600000 -0.140000 1.130000
v 12.600000 -0.137588 1.116319
v 12.600000 -0.130642 1.104288
v 12.600000 -0.120000 1.095359
v 12.600000 -0.106946 1.090608
v 12.600000 -0.093054 1.090608
v 12.600000 -0.080000 1.095359
v 12.600000 -0.069358 1.104288
v 12.600000 -0.062412 1.116319
v 12.600000 -0.060000 1.130000
v 12.600000 -0.062412 1.143681
v 12.600000 -0.069358 1.155712
v 12.600000 -0.080000 1.164641
v 12.600000 -0.093054 1.169392
v 12.600000 -0.106946 1.169392
v 12.600000 -0.120000 1.164641
v 12.600000 -0.130642 1.155712
v 12.600000 -0.137588 1.143681
vn 0.0000 0.9864 0.1646
vn 0.0000 0.9864 -0.1646
vn -0.0004 0.9848 -0.1736
vn 0.0004 0.8795 -0.4759
vn -0.0008 0.8660 -0.5000
vn 0.0007 0.6773 -0.7357
vn -0.0011 0.6428 -0.7660
vn 0.0010 0.4017 -0.9158
vn -0.0013 0.3420 -0.9397
vn 0.0013 0.0826 -0.9966
vn -0.0016 0.0000 -1.0000
vn 0.0015 -0.2455 -0.9694
vn -0.0017 -0.3420 -0.9397
vn 0.0016 -0.5469 -0.8372
vn -0.0019 -0.6428 -0.7660
vn 0.0017 -0.7891 -0.6142
vn -0.0020 -0.8660 -0.5000
vn 0.0018 -0.9458 -0.3247
vn -0.0020 -0.9848 -0.1736
vn 0.0018 -1.0000 0.0000
vn -0.0020 -0.9848 0.1736
vn 0.0018 -0.9458 0.3247
vn -0.0020 -0.8660 0.5000
vn 0.0017 -0.7891 0.6142
vn -0.0019 -0.6428 0.7660
vn 0.0016 -0.5469 0.8372
vn -0.0018 -0.3420 0.9397
vn 0.0015 -0.2455 0.9694
vn -0.0016 0.0000 1.0000
vn 0.0013 0.0826 0.9966
vn -0.0013 0.3420 0.9397
vn 0.0010 0.4017 0.9158
vn -0.0011 0.6428 0.7660
vn 0.0007 0.6773 0.7357
vn -0.0008 0.8660 0.5000
vn 0.0004 0.8795 0.4759
vn -0.0004 0.9848 0.1736
vn 0.0004 0.9848 0.1736
vn -0.0004 0.8795 0.4759
vn 0.0008 0.8660 0.5000
vn -0.0007 0.6773 0.7357
vn 0.0011 0.6428 0.7660
vn -0.0010 0.4017 0.9158
vn 0.0013 0.3420 0.9397
vn -0.0013 0.0826 0.9966
vn 0.0016 0.0000 1.0000
vn -0.0015 -0.2455 0.9694
vn 0.0017 -0.3420 0.9397
vn -0.0016 -0.5469 0.8372
vn 0.0019 -0.6428 0.7660
vn -0.0017 -0.7891 0.6142
vn 0.0020 -0.8660 0.5000
vn -0.0018 -0.9458 0.3247
vn 0.0020 -0.9848 0.1736
vn -0.0018 -1.0000 0.0000
vn 0.0020 -0.9848 -0.1736
vn -0.0018 -0.9458 -0.3247
vn 0.0020 -0.8660 -0.5000
vn -0.0017 -0.7891 -0.6142
vn 0.0019 -0.6428 -0.7660
vn -0.0016 -0.5469 -0.8372
vn 0.0017 -0.3420 -0.9397
vn -0.0015 -0.2455 -0.9694
vn 0.0016 0.0000 -1.0000
vn -0.0013 0.0826 -0.9966
vn 0.0013 0.3420 -0.9397
vn -0.0010 0.4017 -0.9158
vn 0.0011 0.6428 -0.7660
vn -0.0007 0.6773 -0.7357
vn 0.0008 0.8660 -0.5000
vn -0.0004 0.8795 -0.4759
vn 0.0004 0.9848 -0.1736
vn 0.0000 -0.9848 -0.1736
vn 0.0000 -0.8660 -0.5000
vn 0.0000 -0.6428 -0.7660
vn 0.0000 -0.3420 -0.9397
vn 0.0000 0.0000 -1.0000
vn 0.0000 0.3420 -0.9397
vn 0.0000 0.6428 -0.7660
vn 0.0000 0.8660 -0.5000
vn 0.0000 0.9848 -0.1736
vn 0.0000 0.9848 0.1736
vn 0.0000 0.8660 0.5000
vn 0.0000 0.6428 0.7660
vn 0.0000 0.3420 0.9397
vn 0.0000 0.0000 1.0000
vn 0.0000 -0.3420 0.9397
vn 0.0000 -0.6428 0.7660
vn 0.0000 -0.8660 0.5000
vn 0.0000 -0.9848 0.1736
vn 1.0000 0.0000 0.0000
vn 1.0000 0.0001 0.0000
vn -1.0000 0.0000 0.0000
usemtl Material.001
s off
f 1//1 2//1 3//1
f 3//2 2//2 4//2
f 3//3 4//3 5//3
f 5//4 4//4 6//4
f 5//5 6//5 7//5
f 7//6 6//6 8//6
f 7//7 8//7 9//7
f 9//8 8//8 10//8
f 9//9 10//9 11//9
f 11//10 10//10 12//10
f 11//11 12//11 13//11
f 13//12 12//12 14//12
f 13//13 14//13 15//13
f 15//14 14//14 16//14
f 15//15 16//15 17//15
f 17//16 16//16 18//16
f 17//17 18//17 19//17
f 19//18 18//18 20//18
f 19//19 20//19 21//19
f 21//20 20//20 22//20
f 21//21 22//21 23//21
f 23//22 22//22 24//22
f 23//23 24//23 25//23
f 25//24 24//24 26//24
f 25//25 26//25 27//25
f 27//26 26//26 28//26
f 27//27 28//27 29//27
f 29//28 28//28 30//28
f 29//29 30//29 31//29
f 31//30 30//30 32//30
f 31//31 32//31 33//31
f 33//32 32//32 34//32
f 33//33 34//33 35//33
f 35//34 34//34 36//34
f 35//35 36//35 37//35
f 37//36 36//36 1//36
f 37//37 1//37 3//37
f 38//2 39//2 40//2
f 40//1 39//1 41//1
f 40//38 41//38 42//38
f 42//39 41//39 43//39
f 42//40 43//40 44//40
f 44//41 43//41 45//41
f 44//42 45//42 46//42
f 46//43 45//43 47//43
f 46//44 47//44 48//44
f 48//45 47//45 49//45
f 48//46 49//46 50//46
f 50//47 49//47 51//47
f 50//48 51//48 52//48
f 52//49 51//49 53//49
f 52//50 53//50 54//50
f 54//51 53//51 55//51
f 54//52 55//52 56//52
f 56//53 55//53 57//53
f 56//54 57//54 58//54
f 58//55 57//55 59//55
f 58//56 59//56 60//56
f 60//57 59//57 61//57
f 60//58 61//58 62//58
f 62//59 61//59 63//59
f 62//60 63//60 64//60
f 64//61 63//61 65//61
f 64//62 65//62 66//62
f 66//63 65//63 67//63
f 66//64 67//64 68//64
f 68//65 67//65 69//65
f 68//66 69//66 70//66
f 70//67 69//67 71//67
f 70//68 71//68 72//68
f 72//69 71//69 73//69
f 72//70 73//70 74//70
f 74//71 73//71 38//71
f 74//72 38//72 40//72
f 21//73 75//73 19//73
f 19//73 75//73 76//73
f 19//74 76//74 17//74
f 17//74 76//74 77//74
f 17//75 77//75 15//75
f 15//75 77//75 78//75
f 15//76 78//76 13//76
f 13//76 78//76 79//76
f 13//77 79//77 11//77
f 11//77 79//77 80//77
f 11//78 80//78 9//78
f 9//78 80//78 81//78
f 9//79 81//79 7//79
f 7//79 81//79 82//79
f 7//80 82//80 5//80
f 5//80 82//80 83//80
f 5//81 83//81 3//81
f 3//81 83//81 84//81
f 3//82 84//82 37//82
f 37//82 84//82 85//82
f 37//83 85//83 35//83
f 35//83 85//83 86//83
f 35//84 86//84 33//84
f 33//84 86//84 87//84
f 33//85 87//85 31//85
f 31//85 87//85 88//85
f 31//86 88//86 29//86
f 29//86 88//86 89//86
f 29//87 89//87 27//87
f 27//87 89//87 90//87
f 27//88 90//88 25//88
f 25//88 90//88 91//88
f 25//89 91//89 23//89
f 23//89 91//89 92//89
f 23//90 92//90 21//90
f 21//90 92//90 75//90
f 75//73 93//73 76//73
f 76//73 93//73 94//73
f 76//74 94//74 77//74
f 77//74 94//74 95//74
f 77//75 95//75 78//75
f 78//75 95//75 96//75
f 78//76 96//76 79//76
f 79//76 96//76 97//76
f 79//77 97//77 80//77
f 80//77 97//77 98//77
f 80//78 98//78 81//78
f 81//78 98//78 99//78
f 81//79 99//79 82//79
f 82//79 99//79 100//79
f 82//80 100//80 83//80
f 83//80 100//80 101//80
f 83//81 101//81 84//81
f 84//81 101//81 102//81
f 84//82 102//82 85//82
f 85//82 102//82 103//82
f 85//83 103//83 86//83
f 86//83 103//83 104//83
f 86//84 104//84 87//84
f 87//84 104//84 105//84
f 87//85 105//85 88//85
f 88//85 105//85 106//85
f 88//86 106//86 89//86
f 89//86 106//86 107//86
f 89//87 107//87 90//87
f 90//87 107//87 108//87
f 90//88 108//88 91//88
f 91//88 108//88 109//88
f 91//89 109//89 92//89
f 92//89 109//89 110//89
f 92//90 110//90 75//90
f 75//90 110//90 93//90
f 93//73 58//73 94//73
f 94//73 58//73 60//73
f 94//74 60//74 95//74
f 95//74 60//74 62//74
f 95//75 62//75 96//75
f 96//75 62//75 64//75
f 96//76 64//76 97//76
f 97//76 64//76 66//76
f 97//77 66//77 98//77
f 98//77 66//77 68//77
f 98//78 68//78 99//78
f 99//78 68//78 70//78
f 99//79 70//79 100//79
f 100//79 70//79 72//79
f 100//80 72//80 101//80
f 101//80 72//80 74//80
f 101//81 74//81 102//81
f 102//81 74//81 40//81
f 102//82 40//82 103//82
f 103//82 40//82 42//82
f 103//83 42//83 104//83
f 104//83 42//83 44//83
f 104//84 44//84 105//84
f 105//84 44//84 46//84
f 105//85 46//85 106//85
f 106//85 46//85 48//85
f 106//86 48//86 107//86
f 107//86 48//86 50//86
f 107//87 50//87 108//87
f 108//87 50//87 52//87
f 108//88 52//88 109//88
f 109//88 52//88 54//88
f 109//89 54//89 110//89
f 110//89 54//89 56//89
f 110//90 56//90 93//90
f 93//90 56//90 58//90
f 2//91 1//91 4//91
f 4//91 1//91 6//91
f 6//91 1//91 36//91
f 6//91 36//91 8//91
f 8//91 36//91 34//91
f 8//91 34//91 10//91
f 10//91 34//91 32//91
f 10//91 32//91 12//91
f 12//92 32//92 30//92
f 12//91 30//91 14//91
f 14//91 30//91 28//91
f 14//91 28//91 16//91
f 16//91 28//91 26//91
f 16//91 26//91 18//91
f 18//91 26//91 24//91
f 18//91 24//91 20//91
f 20//91 24//91 22//91
f 39//93 38//93 41//93
f 41//93 38//93 43//93
f 43//93 38//93 73//93
f 43//93 73//93 45//93
f 45//93 73//93 71//93
f 45//93 71//93 47//93
f 47//93 71//93 69//93
f 47//93 69//93 49//93
f 49//93 69//93 67//93
f 49//93 67//93 51//93
f 51//93 67//93 65//93
f 51//93 65//93 53//93
f 53//93 65//93 63//93
f 53//93 63//93 55//93
f 55//93 63//93 61//93
f 55//93 61//93 57//93
f 57//93 61//93 59//93
