# Blender v2.91.0 OBJ File: 'Stairs.blend'
# www.blender.org
mtllib Stairs.mtl
o Stairs
v 7.600000 2.000000 1.600000
v 7.600000 2.000000 1.400000
v 7.600000 1.000000 1.600000
v 7.600000 1.000000 1.400000
v 7.900000 2.000000 1.600000
v 7.900000 1.000000 1.600000
v 7.900000 2.000000 1.800000
v 7.900000 1.000000 1.800000
v 8.200000 2.000000 1.800000
v 8.200000 1.000000 1.800000
v 8.200000 2.000000 2.000000
v 8.200000 1.000000 2.000000
v 8.500000 2.000000 2.000000
v 8.500000 1.000000 2.000000
v 8.500000 2.000000 2.200000
v 8.500000 1.000000 2.200000
v 8.800000 2.000000 2.200000
v 8.800000 1.000000 2.200000
v 8.800000 2.000000 2.400000
v 8.800000 1.000000 2.400000
v 9.100000 2.000000 2.400000
v 9.100000 1.000000 2.400000
v 9.100000 2.000000 2.600000
v 9.100000 1.000000 2.600000
v 9.400000 2.000000 2.600000
v 9.400000 1.000000 2.600000
v 9.400000 2.000000 2.800000
v 9.400000 1.000000 2.800000
v 5.800000 2.000000 0.200000
v 5.500000 2.000000 0.200000
v 5.800000 1.000000 0.200000
v 5.500000 1.000000 0.200000
v 5.800000 2.000000 0.400000
v 5.800000 1.000000 0.400000
v 6.100000 2.000000 0.400000
v 6.100000 1.000000 0.400000
v 6.100000 2.000000 0.600000
v 6.100000 1.000000 0.600000
v 6.400000 2.000000 0.600000
v 6.400000 1.000000 0.600000
v 6.400000 2.000000 0.800000
v 6.400000 1.000000 0.800000
v 6.700000 2.000000 0.800000
v 6.700000 1.000000 0.800000
v 6.700000 2.000000 1.000000
v 6.700000 1.000000 1.000000
v 7.000000 2.000000 1.000000
v 7.000000 1.000000 1.000000
v 7.000000 2.000000 1.200000
v 7.000000 1.000000 1.200000
v 7.300000 2.000000 1.200000
v 7.300000 1.000000 1.200000
v 7.300000 2.000000 1.400000
v 7.300000 1.000000 1.400000
v 5.500000 1.000000 0.000000
v 5.500000 2.000000 0.000000
v 11.000000 1.000000 2.800000
v 11.000000 2.000000 2.800000
v 11.000000 2.000000 0.000000
v 11.000000 1.000000 0.000000
vn -1.0000 0.0000 0.0000
vn 0.0000 0.0000 1.0000
vn 0.0000 1.0000 0.0000
vn 1.0000 0.0000 0.0000
vn 0.0000 -1.0000 0.0000
vn 0.0000 0.0000 -1.0000
usemtl Material.002
s off
f 1//1 2//1 3//1
f 3//1 2//1 4//1
f 5//2 1//2 6//2
f 6//2 1//2 3//2
f 7//1 5//1 8//1
f 8//1 5//1 6//1
f 9//2 7//2 10//2
f 10//2 7//2 8//2
f 11//1 9//1 12//1
f 12//1 9//1 10//1
f 13//2 11//2 14//2
f 14//2 11//2 12//2
f 15//1 13//1 16//1
f 16//1 13//1 14//1
f 17//2 15//2 18//2
f 18//2 15//2 16//2
f 19//1 17//1 20//1
f 20//1 17//1 18//1
f 21//2 19//2 22//2
f 22//2 19//2 20//2
f 23//1 21//1 24//1
f 24//1 21//1 22//1
f 25//2 23//2 26//2
f 26//2 23//2 24//2
f 27//1 25//1 28//1
f 28//1 25//1 26//1
f 29//2 30//2 31//2
f 31//2 30//2 32//2
f 33//1 29//1 34//1
f 34//1 29//1 31//1
f 35//2 33//2 36//2
f 36//2 33//2 34//2
f 37//1 35//1 38//1
f 38//1 35//1 36//1
f 39//2 37//2 40//2
f 40//2 37//2 38//2
f 41//1 39//1 42//1
f 42//1 39//1 40//1
f 43//2 41//2 44//2
f 44//2 41//2 42//2
f 45//1 43//1 46//1
f 46//1 43//1 44//1
f 47//2 45//2 48//2
f 48//2 45//2 46//2
f 49//1 47//1 50//1
f 50//1 47//1 48//1
f 51//2 49//2 52//2
f 52//2 49//2 50//2
f 53//1 51//1 54//1
f 54//1 51//1 52//1
f 2//2 53//2 4//2
f 4//2 53//2 54//2
f 32//1 30//1 55//1
f 55//1 30//1 56//1
f 27//3 58//3 25//3
f 25//3 58//3 21//3
f 25//3 21//3 23//3
f 21//3 58//3 17//3
f 17//3 58//3 59//3
f 17//3 59//3 13//3
f 13//3 59//3 9//3
f 13//3 9//3 11//3
f 56//3 29//3 59//3
f 59//3 29//3 35//3
f 59//3 35//3 39//3
f 39//3 35//3 37//3
f 56//3 30//3 29//3
f 29//3 33//3 35//3
f 41//3 43//3 39//3
f 39//3 43//3 59//3
f 45//3 47//3 43//3
f 43//3 47//3 59//3
f 49//3 51//3 47//3
f 47//3 51//3 59//3
f 53//3 2//3 51//3
f 51//3 2//3 59//3
f 1//3 5//3 2//3
f 2//3 5//3 59//3
f 7//3 9//3 5//3
f 5//3 9//3 59//3
f 13//3 15//3 17//3
f 17//3 19//3 21//3
f 60//4 59//4 57//4
f 57//4 59//4 58//4
f 32//5 55//5 31//5
f 31//5 55//5 60//5
f 31//5 60//5 36//5
f 36//5 60//5 40//5
f 36//5 40//5 38//5
f 57//5 18//5 60//5
f 60//5 18//5 14//5
f 60//5 14//5 10//5
f 10//5 14//5 12//5
f 28//5 26//5 57//5
f 57//5 26//5 22//5
f 57//5 22//5 18//5
f 18//5 22//5 20//5
f 26//5 24//5 22//5
f 18//5 16//5 14//5
f 8//5 6//5 10//5
f 10//5 6//5 60//5
f 3//5 4//5 6//5
f 6//5 4//5 60//5
f 54//5 52//5 4//5
f 4//5 52//5 60//5
f 50//5 48//5 52//5
f 52//5 48//5 60//5
f 46//5 44//5 48//5
f 48//5 44//5 60//5
f 42//5 40//5 44//5
f 44//5 40//5 60//5
f 36//5 34//5 31//5
f 60//6 55//6 59//6
f 59//6 55//6 56//6
usemtl Material.003
f 28//2 57//2 27//2
f 27//2 57//2 58//2
